<?xml version="1.0" standalone="no"?>
<!DOCTYPE svg PUBLIC "-//W3C//DTD SVG 20010904//EN"
 "http://www.w3.org/TR/2001/REC-SVG-20010904/DTD/svg10.dtd">
<svg version="1.0" xmlns="http://www.w3.org/2000/svg"
 width="1024.000000pt" height="1437.000000pt" viewBox="0 0 1024.000000 1437.000000"
 preserveAspectRatio="xMidYMid meet">

<g transform="translate(0.000000,1437.000000) scale(0.100000,-0.100000)"
fill="#000000" stroke="none">
<path d="M0 13870 l0 -500 5120 0 5120 0 0 500 0 500 -5120 0 -5120 0 0 -500z
m6480 272 c0 -13 -39 -46 -46 -40 -8 9 19 48 33 48 7 0 13 -4 13 -8z m-2681
-64 l23 -53 26 53 c23 46 52 70 52 42 0 -21 -65 -140 -77 -140 -15 0 -85 134
-76 144 16 15 31 2 52 -46z m981 36 c0 -9 -7 -14 -17 -12 -25 5 -28 28 -4 28
12 0 21 -6 21 -16z m1500 1 c0 -8 -7 -15 -15 -15 -8 0 -15 7 -15 15 0 8 7 15
15 15 8 0 15 -7 15 -15z m-2200 -10 c0 -8 7 -15 15 -15 8 0 15 -4 15 -10 0 -5
-7 -10 -15 -10 -10 0 -15 -10 -15 -30 0 -18 6 -33 15 -36 25 -10 17 -26 -12
-22 -25 3 -28 7 -31 46 -2 28 -8 42 -18 42 -8 0 -14 5 -14 10 0 6 7 10 15 10
8 0 15 7 15 15 0 8 7 15 15 15 8 0 15 -7 15 -15z m1010 0 c0 -8 7 -15 15 -15
8 0 15 -4 15 -10 0 -5 -7 -10 -15 -10 -10 0 -15 -10 -15 -30 0 -18 6 -33 15
-36 21 -8 19 -24 -3 -24 -27 0 -42 20 -42 56 0 18 -6 35 -12 38 -10 5 -10 7 0
12 6 3 12 12 12 20 0 8 7 14 15 14 8 0 15 -7 15 -15z m690 0 c0 -8 7 -15 15
-15 20 0 19 -10 -1 -25 -21 -15 -12 -62 14 -68 16 -4 16 -5 -2 -12 -28 -12
-51 7 -54 46 -2 19 -9 38 -15 42 -9 6 -9 10 1 14 6 2 12 11 12 19 0 8 7 14 15
14 8 0 15 -7 15 -15z m-1776 -31 c36 -35 9 -94 -43 -94 -35 0 -51 17 -51 55 0
17 5 36 12 43 17 17 64 15 82 -4z m196 5 c0 -5 -11 -14 -25 -19 -20 -8 -25
-16 -25 -45 0 -24 -5 -35 -15 -35 -11 0 -15 13 -15 54 l0 54 40 0 c22 0 40 -4
40 -9z m88 -1 c7 -7 12 -22 12 -35 0 -20 -5 -23 -37 -23 -24 0 -33 -3 -25 -9
7 -4 25 -6 39 -3 19 4 24 1 21 -9 -6 -18 -65 -24 -84 -8 -16 13 -18 52 -4 80
12 22 59 26 78 7z m189 0 c7 -6 13 -30 13 -55 0 -37 -3 -44 -17 -41 -13 2 -19
14 -21 41 -2 23 -8 37 -17 37 -9 0 -15 -14 -17 -37 -2 -27 -8 -39 -20 -41 -15
-3 -18 5 -18 51 l0 55 42 0 c23 1 48 -4 55 -10z m123 -8 c6 -12 10 -35 8 -53
-3 -29 -6 -32 -43 -35 -28 -2 -43 2 -52 14 -16 23 0 44 34 44 15 0 23 5 20 13
-2 7 -15 11 -30 9 -26 -3 -35 7 -20 21 3 4 21 7 39 7 23 0 37 -6 44 -20z m56
-12 l17 -33 15 33 c15 30 42 45 42 22 0 -21 -45 -100 -57 -100 -14 0 -65 94
-56 104 13 12 23 5 39 -26z m119 -24 c0 -37 -4 -49 -15 -49 -16 0 -27 63 -16
92 12 31 31 6 31 -43z m135 -3 c0 -74 -14 -93 -65 -89 -22 2 -40 9 -43 17 -4
11 2 13 26 8 18 -4 34 -1 40 6 8 9 2 12 -21 12 -23 0 -35 7 -46 26 -13 24 -13
29 2 52 14 22 24 26 62 25 l45 -1 0 -56z m108 47 c7 -7 12 -31 12 -54 l0 -43
-47 2 c-44 2 -48 4 -48 27 0 20 6 26 28 28 15 2 27 9 27 17 0 11 -8 13 -30 9
-28 -6 -39 4 -23 19 11 12 68 8 81 -5z m202 -3 c21 -25 8 -49 -30 -56 -36 -7
-23 -13 19 -9 15 1 22 -3 19 -12 -6 -17 -65 -23 -84 -7 -17 14 -19 70 -2 87
17 17 63 15 78 -3z m60 -23 c0 -43 6 -53 26 -45 9 3 14 20 14 44 0 28 4 39 15
39 12 0 15 -13 15 -56 l0 -55 -47 3 -48 3 -3 53 c-2 42 0 52 12 52 12 0 16
-10 16 -38z m170 28 c0 -5 -9 -14 -20 -20 -14 -8 -20 -21 -20 -45 0 -24 -5
-35 -15 -35 -12 0 -15 13 -15 55 l0 55 35 0 c19 0 35 -4 35 -10z m160 -11 c17
-31 5 -49 -32 -49 -22 0 -28 -3 -20 -9 7 -4 25 -6 39 -3 19 4 24 1 21 -9 -3
-9 -19 -14 -43 -14 -32 0 -42 5 -54 26 -13 24 -13 29 2 53 22 33 71 36 87 5z
m108 2 c3 -10 -2 -12 -22 -7 -15 4 -26 2 -26 -4 0 -5 11 -12 24 -16 29 -7 41
-31 25 -51 -15 -18 -81 -13 -87 6 -4 11 2 13 27 8 36 -8 43 8 7 17 -29 7 -41
33 -25 53 15 17 71 13 77 -6z m250 7 c7 -7 12 -22 12 -35 0 -20 -5 -23 -37
-23 -24 0 -33 -3 -25 -9 7 -4 25 -6 39 -3 19 4 24 1 21 -9 -6 -18 -65 -24 -84
-8 -16 13 -18 52 -4 80 12 22 59 26 78 7z m62 -3 c15 -14 18 -14 30 0 15 18
40 20 40 3 0 -6 -7 -19 -15 -28 -14 -15 -14 -18 0 -30 15 -12 21 -40 8 -40 -3
0 -15 7 -25 17 -17 15 -19 15 -37 -1 -29 -26 -48 -9 -21 19 18 19 19 23 5 35
-15 12 -21 40 -8 40 3 0 14 -7 23 -15z m187 3 c18 -14 16 -73 -2 -88 -8 -7
-26 -10 -40 -8 -21 4 -25 1 -25 -18 0 -15 -6 -24 -15 -24 -12 0 -15 15 -15 74
l0 74 42 0 c23 1 48 -4 55 -10z m63 -43 c0 -42 -3 -55 -15 -55 -12 0 -15 13
-15 55 0 42 3 55 15 55 12 0 15 -13 15 -55z m100 45 c0 -5 -9 -14 -20 -20 -14
-8 -20 -21 -20 -45 0 -24 -5 -35 -15 -35 -12 0 -15 13 -15 55 l0 55 35 0 c19
0 35 -4 35 -10z m100 -11 c17 -31 5 -49 -32 -49 -22 0 -28 -3 -20 -9 7 -4 25
-6 39 -3 19 4 24 1 21 -9 -3 -9 -19 -14 -43 -14 -32 0 -42 5 -54 26 -13 24
-13 29 2 53 22 33 71 36 87 5z m-3700 -264 c7 -8 8 -15 2 -15 -5 0 -15 7 -22
15 -7 8 -8 15 -2 15 5 0 15 -7 22 -15z m3581 -1 c12 -14 11 -16 -5 -13 -11 2
-21 10 -24 17 -5 17 13 15 29 -4z m-4700 -35 l21 -42 18 42 c11 22 24 41 29
41 6 0 -1 -24 -14 -52 -14 -29 -29 -53 -35 -53 -6 0 -21 24 -35 53 -28 61 -15
71 16 11z m279 37 c0 -3 -4 -8 -10 -11 -5 -3 -10 -1 -10 4 0 6 5 11 10 11 6 0
10 -2 10 -4z m30 -51 c0 -30 -4 -55 -10 -55 -5 0 -10 25 -10 55 0 30 5 55 10
55 6 0 10 -25 10 -55z m40 0 c0 -30 -4 -55 -10 -55 -5 0 -10 25 -10 55 0 30 5
55 10 55 6 0 10 -25 10 -55z m485 25 c4 0 14 8 21 18 13 16 13 16 14 0 0 -10
6 -18 13 -18 9 0 9 -2 -1 -9 -16 -10 -12 -53 6 -59 8 -2 12 8 12 32 0 32 3 36
27 36 25 0 25 -1 10 -18 -10 -10 -17 -28 -17 -40 0 -18 -6 -22 -29 -22 -29 0
-41 14 -41 51 0 10 -7 19 -15 19 -19 0 -21 -56 -2 -64 6 -3 3 -5 -8 -3 -15 2
-21 11 -23 35 -3 31 -22 46 -22 17 0 -9 -10 -15 -26 -15 -16 0 -24 -5 -21 -12
2 -7 14 -12 26 -11 11 2 21 -2 21 -8 0 -6 -14 -9 -32 -7 -30 3 -33 6 -33 38 0
32 3 35 30 37 17 0 36 2 43 2 6 1 12 9 12 19 1 16 1 16 14 0 7 -10 17 -18 21
-18z m395 20 c0 -5 -4 -10 -10 -10 -5 0 -10 5 -10 10 0 6 5 10 10 10 6 0 10
-4 10 -10z m490 -5 c0 -8 6 -15 13 -16 10 0 10 -2 0 -6 -7 -2 -13 -17 -13 -33
0 -16 6 -31 13 -34 6 -3 3 -5 -8 -3 -14 2 -21 12 -25 37 -7 40 -2 70 11 70 5
0 9 -7 9 -15z m490 5 c0 -5 -4 -10 -10 -10 -5 0 -10 5 -10 10 0 6 5 10 10 10
6 0 10 -4 10 -10z m229 -28 c-14 -6 -11 -60 4 -66 6 -3 3 -5 -8 -3 -14 1 -21
11 -23 32 -2 16 -9 33 -15 37 -9 6 -9 8 1 8 6 0 12 8 12 17 0 15 2 14 19 -3
10 -10 14 -20 10 -22z m784 8 c8 0 7 -3 -1 -9 -16 -10 -12 -53 6 -59 8 -2 12
8 12 32 0 20 5 36 10 36 6 0 10 -18 10 -40 0 -38 -2 -40 -30 -40 -24 0 -31 5
-36 28 -3 15 -7 32 -9 37 -1 6 3 19 8 30 10 18 11 18 15 3 2 -10 9 -18 15 -18z
m37 20 c0 -5 -2 -10 -4 -10 -3 0 -8 5 -11 10 -3 6 -1 10 4 10 6 0 11 -4 11
-10z m40 -45 c0 -30 -4 -55 -10 -55 -5 0 -10 25 -10 55 0 30 5 55 10 55 6 0
10 -25 10 -55z m40 45 c0 -5 -4 -10 -10 -10 -5 0 -10 5 -10 10 0 6 5 10 10 10
6 0 10 -4 10 -10z m570 0 c0 -5 -4 -10 -10 -10 -5 0 -10 5 -10 10 0 6 5 10 10
10 6 0 10 -4 10 -10z m54 -22 c8 -5 7 -8 -1 -8 -19 0 -15 -48 5 -59 15 -9 15
-10 -5 -11 -17 0 -24 7 -29 28 -3 15 -7 32 -9 37 -1 6 2 19 8 30 8 16 11 17
15 5 3 -8 10 -18 16 -22z m444 2 c5 0 13 8 17 18 6 16 7 16 19 0 8 -12 27 -18
50 -18 20 0 36 -4 36 -10 0 -5 -7 -10 -15 -10 -10 0 -15 -10 -15 -31 0 -29 -2
-30 -37 -27 -33 3 -38 7 -41 31 -2 15 -9 27 -18 27 -17 0 -18 -31 -1 -49 10
-10 7 -12 -13 -9 -18 2 -26 10 -28 28 -2 14 -7 29 -12 34 -4 4 -1 17 8 27 15
17 18 18 28 4 6 -8 16 -15 22 -15z m412 20 c0 -5 -7 -10 -15 -10 -8 0 -15 5
-15 10 0 6 7 10 15 10 8 0 15 -4 15 -10z m330 -45 c0 -42 -3 -55 -15 -55 -12
0 -15 13 -15 55 0 42 3 55 15 55 12 0 15 -13 15 -55z m430 45 c0 -5 -7 -10
-15 -10 -8 0 -15 5 -15 10 0 6 7 10 15 10 8 0 15 -4 15 -10z m242 -38 c-14 -4
-16 -42 -2 -42 6 0 10 -4 10 -10 0 -5 -9 -10 -20 -10 -25 0 -45 63 -29 92 10
19 11 19 32 -3 14 -15 17 -24 9 -27z m548 38 c0 -5 -7 -10 -15 -10 -8 0 -15 5
-15 10 0 6 7 10 15 10 8 0 15 -4 15 -10z m140 -4 c0 -8 6 -17 13 -20 10 -5 10
-7 0 -12 -7 -3 -13 -14 -13 -24 0 -10 6 -20 13 -23 6 -2 9 -8 5 -12 -13 -14
-38 4 -38 29 0 13 -6 27 -12 30 -10 5 -10 7 0 12 6 3 12 12 12 20 0 8 5 14 10
14 6 0 10 -6 10 -14z m426 -38 c-8 -13 -7 -23 2 -39 12 -19 11 -20 -10 -17
-16 2 -24 11 -26 28 -2 14 -7 29 -12 34 -4 4 -1 16 8 27 15 17 17 17 32 1 13
-13 14 -21 6 -34z m-6788 0 c3 -14 -3 -18 -23 -18 -17 0 -25 -5 -22 -12 2 -7
14 -12 26 -11 11 2 21 -2 21 -7 0 -14 -44 -12 -58 2 -27 27 -4 71 33 66 11 -2
21 -11 23 -20z m42 -19 c0 -41 24 -33 28 9 5 46 22 39 22 -9 0 -39 -1 -40 -32
-37 -30 3 -33 6 -36 42 -2 25 0 36 7 31 6 -3 11 -20 11 -36z m90 1 c0 -16 -4
-32 -10 -35 -6 -4 -10 10 -10 35 0 25 4 39 10 35 6 -3 10 -19 10 -35z m158 18
c3 -14 -3 -18 -28 -18 -27 0 -30 -3 -21 -14 7 -8 21 -12 33 -8 14 3 19 1 14
-6 -12 -19 -54 -14 -66 8 -16 31 4 62 38 58 16 -2 28 -10 30 -20z m73 4 c-5
-10 -18 -25 -27 -33 -16 -13 -15 -15 12 -20 27 -6 27 -7 -8 -8 -44 -1 -45 2
-17 37 l21 27 -24 6 c-18 6 -15 7 15 8 34 1 37 -1 28 -17z m177 -24 c2 -22 -1
-38 -7 -38 -6 0 -11 16 -11 35 0 26 -3 33 -15 29 -9 -4 -15 -19 -15 -35 0 -16
-4 -29 -10 -29 -5 0 -10 16 -10 36 0 31 -2 35 -15 24 -8 -7 -15 -23 -15 -36 0
-13 -4 -24 -10 -24 -5 0 -10 18 -10 40 l0 40 58 -2 57 -3 3 -37z m340 20 c3
-14 -3 -18 -28 -18 -27 0 -30 -3 -21 -14 7 -8 21 -12 33 -8 14 3 19 1 14 -6
-12 -19 -54 -14 -66 8 -16 31 4 62 38 58 16 -2 28 -10 30 -20z m120 -20 c3
-36 2 -38 -26 -38 -30 0 -43 14 -35 38 3 6 13 12 24 12 10 0 19 5 19 11 0 6
-9 8 -20 4 -12 -4 -20 -2 -20 5 0 6 12 10 28 8 23 -3 27 -8 30 -40z m80 -10
c-3 -44 -6 -53 -23 -55 -11 -2 -14 0 -7 3 7 3 12 25 12 55 0 28 5 49 11 49 6
0 9 -20 7 -52z m87 12 c0 -31 -3 -35 -27 -38 -19 -2 -30 3 -38 17 -16 32 4 63
38 59 24 -3 27 -7 27 -38z m45 -1 c0 -41 24 -33 28 9 5 46 22 39 22 -9 0 -39
-1 -40 -32 -37 -30 3 -33 6 -36 42 -2 25 0 36 7 31 6 -3 11 -20 11 -36z m108
30 c-10 -5 -18 -21 -18 -34 0 -13 -4 -27 -10 -30 -6 -4 -10 10 -10 34 0 38 2
41 28 41 23 -1 24 -2 10 -11z m76 -16 l14 -28 11 28 c6 15 15 27 21 27 6 0 4
-14 -5 -36 -8 -20 -15 -38 -15 -40 0 -2 -4 -4 -10 -4 -10 0 -40 52 -40 70 0
17 9 11 24 -17z m131 -13 c0 -29 -4 -36 -23 -38 -43 -6 -69 37 -40 66 7 7 24
12 38 10 21 -3 25 -8 25 -38z m113 26 c-10 -7 -18 -25 -18 -40 0 -14 -4 -26
-10 -26 -5 0 -10 18 -10 40 0 37 2 40 28 40 24 -1 25 -2 10 -14z m80 2 c19
-19 14 -28 -18 -28 -16 0 -30 -4 -30 -10 0 -11 13 -14 44 -10 11 1 15 -3 12
-9 -9 -15 -49 -14 -64 1 -24 24 -7 68 28 68 9 0 21 -5 28 -12z m131 -30 c-1
-43 -1 -43 -9 -10 -4 18 -10 35 -13 39 -12 11 -27 -10 -27 -38 0 -16 -4 -29
-10 -29 -5 0 -10 18 -10 40 0 39 1 40 35 40 35 0 35 0 34 -42z m89 -1 c3 -38
3 -38 -30 -35 -25 2 -33 8 -33 23 0 13 8 21 23 23 12 2 20 7 17 12 -3 4 -15 6
-27 2 -15 -4 -19 -2 -14 7 5 7 20 11 34 9 23 -3 27 -8 30 -41z m37 16 c6 -27
7 -27 20 -9 8 10 16 24 18 30 2 6 7 8 11 5 8 -8 -24 -79 -36 -79 -8 0 -38 53
-38 70 0 21 18 9 25 -17z m85 -13 c0 -22 -4 -40 -10 -40 -5 0 -10 18 -10 40 0
22 5 40 10 40 6 0 10 -18 10 -40z m88 -12 c-3 -52 -4 -53 -35 -56 -20 -2 -33
1 -33 8 0 7 8 9 19 5 11 -3 22 -1 26 5 3 5 -2 10 -12 10 -23 0 -43 19 -43 40
0 24 21 40 53 40 28 0 28 -1 25 -52z m86 36 c3 -9 6 -27 6 -40 0 -22 -4 -25
-32 -22 -25 2 -33 8 -33 23 0 13 8 21 23 23 12 2 20 7 17 12 -3 4 -14 6 -25 3
-11 -3 -20 0 -20 6 0 17 57 13 64 -5z m144 -6 c3 -14 -3 -18 -28 -18 -27 0
-30 -3 -21 -14 7 -8 21 -12 33 -8 14 3 19 1 14 -6 -12 -19 -54 -14 -66 8 -16
31 4 62 38 58 16 -2 28 -10 30 -20z m32 -6 c0 -16 3 -32 7 -35 11 -12 33 14
33 39 0 13 5 24 10 24 6 0 10 -18 10 -40 0 -39 -1 -40 -34 -40 -22 0 -36 6
-40 16 -9 25 -7 64 4 64 6 0 10 -13 10 -28z m107 10 c-10 -10 -17 -28 -17 -40
0 -12 -4 -22 -10 -22 -5 0 -10 18 -10 40 0 37 2 40 27 40 25 0 25 -1 10 -18z
m139 -7 c9 -36 -2 -55 -31 -55 -16 0 -25 -6 -25 -15 0 -8 -4 -15 -10 -15 -5 0
-10 25 -10 55 l0 55 35 0 c29 0 36 -4 41 -25z m88 3 c15 -25 -3 -52 -37 -56
-21 -3 -28 2 -33 22 -12 49 43 76 70 34z m38 -10 c2 -18 8 -33 13 -33 6 0 11
15 13 33 5 46 22 40 22 -9 0 -39 -1 -40 -32 -37 -30 3 -33 6 -36 41 -2 20 1
37 7 37 5 0 11 -15 13 -32z m106 18 c-10 -7 -18 -25 -18 -40 0 -14 -4 -26 -10
-26 -5 0 -10 18 -10 40 0 37 2 40 28 40 24 -1 25 -2 10 -14z m84 -18 c2 -18 8
-33 13 -33 6 0 11 15 13 33 5 46 22 40 22 -9 0 -39 -1 -40 -32 -37 -30 3 -33
6 -36 41 -2 20 1 37 7 37 5 0 11 -15 13 -32z m218 -8 c0 -22 -4 -40 -10 -40
-5 0 -10 18 -10 40 0 22 5 40 10 40 6 0 10 -18 10 -40z m70 29 c0 -6 -6 -9
-14 -6 -24 9 -27 -6 -3 -17 12 -7 22 -18 22 -26 0 -19 -44 -26 -59 -9 -8 9 -6
10 11 6 13 -3 26 -1 29 4 3 5 -1 9 -9 9 -19 0 -40 26 -32 40 8 14 55 13 55 -1z
m88 -11 c3 -14 -3 -18 -23 -18 -17 0 -25 -5 -22 -12 2 -7 14 -12 26 -11 11 2
21 -2 21 -8 0 -6 -14 -9 -32 -7 -26 2 -34 8 -36 26 -2 13 -1 30 2 38 8 21 60
14 64 -8z m60 11 c-10 -5 -18 -21 -18 -34 0 -13 -4 -27 -10 -30 -6 -4 -10 10
-10 34 0 38 2 41 28 41 23 -1 24 -2 10 -11z m117 0 c4 -6 1 -10 -6 -8 -29 3
-39 -2 -39 -21 0 -19 10 -24 39 -21 7 2 10 -2 6 -8 -3 -6 -17 -11 -30 -11 -29
0 -45 41 -25 65 14 17 46 20 55 4z m83 -11 c3 -14 -3 -18 -28 -18 -27 0 -30
-3 -21 -14 7 -8 21 -12 33 -8 14 3 19 1 14 -6 -12 -19 -54 -14 -66 8 -16 31 4
62 38 58 16 -2 28 -10 30 -20z m118 10 c5 -8 0 -9 -14 -6 -12 4 -24 3 -27 -2
-3 -4 7 -11 21 -14 17 -5 24 -12 22 -24 -4 -21 -46 -28 -62 -11 -8 9 -6 10 11
6 13 -3 26 -1 29 4 3 5 -1 9 -8 9 -20 0 -37 20 -31 36 6 17 49 19 59 2z m34
-28 c0 -22 -4 -40 -10 -40 -5 0 -10 18 -10 40 0 22 5 40 10 40 6 0 10 -18 10
-40z m138 18 c3 -14 -3 -18 -23 -18 -17 0 -25 -5 -22 -12 2 -7 14 -12 26 -11
11 2 21 -2 21 -7 0 -14 -44 -12 -58 2 -27 27 -4 71 33 66 11 -2 21 -11 23 -20z
m204 8 c14 -21 9 -66 -7 -66 -10 0 -15 10 -15 30 0 17 -4 30 -10 30 -5 0 -10
-13 -10 -30 0 -20 -5 -30 -15 -30 -10 0 -15 10 -15 30 0 17 -4 30 -10 30 -5 0
-10 -13 -10 -30 0 -20 -5 -30 -15 -30 -11 0 -15 11 -15 40 l0 40 58 -1 c31 -1
60 -7 64 -13z m86 -8 c3 -14 -3 -18 -23 -18 -16 0 -24 -4 -19 -11 3 -6 15 -9
25 -6 12 3 19 0 19 -10 0 -10 -9 -13 -32 -11 -26 2 -34 8 -36 26 -2 13 -1 30
2 38 8 21 60 14 64 -8z m262 18 c0 -2 3 -11 6 -20 5 -12 0 -16 -20 -16 -14 0
-26 -4 -26 -10 0 -5 12 -10 26 -10 14 0 23 -4 19 -10 -9 -14 -48 -13 -63 2
-27 27 -6 68 35 68 13 0 23 -2 23 -4z m128 -39 c3 -38 3 -38 -30 -35 -41 4
-47 38 -8 49 25 7 25 7 -3 8 -17 1 -26 5 -22 12 4 5 19 9 33 7 23 -3 27 -8 30
-41z m92 -2 l0 -45 418 1 c229 1 406 4 393 8 -60 17 -51 74 13 79 l36 3 0 -45
0 -46 642 0 c353 0 639 -2 636 -5 -7 -7 -2829 -7 -2836 0 -3 3 146 5 331 5
l337 0 0 45 c0 33 4 45 15 45 11 0 15 -12 15 -45z m85 5 c0 -32 -3 -35 -32
-38 -24 -2 -33 1 -38 17 -3 12 -3 30 0 42 5 16 14 19 38 17 29 -3 32 -6 32
-38z m45 9 c0 -38 24 -35 28 4 5 42 22 32 22 -13 0 -39 -1 -40 -35 -40 -29 0
-36 4 -41 25 -3 14 -4 32 0 40 10 26 26 16 26 -16z m120 22 c0 -5 -7 -11 -15
-15 -8 -3 -15 -17 -15 -31 0 -14 -4 -25 -10 -25 -5 0 -10 18 -10 40 0 36 3 40
25 40 14 0 25 -4 25 -9z m158 -3 c19 -19 14 -28 -13 -28 -14 0 -25 -5 -25 -11
0 -5 9 -9 20 -7 10 2 20 -1 22 -7 2 -5 -11 -11 -29 -13 -24 -2 -33 1 -38 17
-15 48 29 83 63 49z m140 -30 c2 -29 0 -38 -12 -38 -11 0 -16 9 -16 30 0 37
-18 40 -22 3 -5 -45 -28 -40 -28 7 l0 41 38 -3 c35 -3 37 -5 40 -40z m86 26
c3 -9 6 -27 6 -40 0 -23 -3 -25 -37 -22 -30 2 -38 7 -38 23 0 12 9 22 25 26
25 7 25 7 -3 8 -37 1 -25 21 13 21 16 0 30 -7 34 -16z m39 -5 c6 -22 27 -18
27 6 0 9 11 13 30 13 28 -1 30 -4 30 -40 0 -47 -22 -48 -30 -2 l-5 29 -14 -32
c-17 -42 -33 -42 -54 2 -21 43 -21 45 -3 45 7 0 16 -9 19 -21z m265 -22 c3
-38 3 -38 -30 -35 -41 4 -47 38 -8 49 25 7 25 7 -3 8 -17 1 -26 5 -22 12 4 5
19 9 33 7 23 -3 27 -8 30 -41z m150 21 c3 -13 -3 -18 -22 -18 -14 0 -26 -4
-26 -10 0 -5 12 -10 26 -10 14 0 23 -4 19 -10 -11 -18 -54 -11 -65 10 -16 31
4 62 38 58 16 -2 28 -10 30 -20z m42 -8 c0 -37 18 -40 22 -3 5 45 28 40 28 -7
l0 -41 -37 3 c-36 3 -38 5 -41 41 -2 28 0 37 12 37 11 0 16 -9 16 -30z m120
21 c0 -5 -7 -11 -15 -15 -8 -3 -15 -17 -15 -32 0 -16 -5 -24 -12 -22 -15 5
-22 42 -14 64 6 15 56 20 56 5z m175 -18 c3 -15 9 -22 13 -16 4 6 16 13 27 16
18 4 18 5 -2 6 -13 0 -23 6 -23 12 0 6 14 9 33 7 29 -3 32 -6 35 -40 3 -37 3
-38 -32 -38 -21 0 -36 5 -36 12 0 9 -3 9 -12 0 -19 -19 -28 -14 -28 18 0 37
-18 40 -22 3 -4 -39 -28 -42 -28 -4 0 38 -17 41 -22 4 -5 -45 -28 -40 -28 6
l0 41 59 0 c56 0 59 -1 66 -27z m125 -14 c0 -28 -4 -39 -12 -37 -24 8 -22 78
2 78 5 0 10 -18 10 -41z m88 -1 c2 -22 -1 -38 -7 -38 -6 0 -11 14 -11 30 0 20
-5 30 -15 30 -10 0 -15 -10 -15 -31 0 -36 -23 -36 -28 0 -6 39 5 53 40 49 30
-3 33 -6 36 -40z m150 20 c3 -13 -3 -18 -22 -18 -14 0 -26 -4 -26 -10 0 -5 12
-10 26 -10 14 0 23 -4 19 -10 -11 -18 -54 -11 -65 10 -16 31 4 62 38 58 16 -2
28 -10 30 -20z m90 -20 c4 -43 -15 -53 -20 -11 -4 39 -28 42 -28 4 0 -21 -5
-31 -15 -31 -11 0 -15 11 -15 41 l0 40 38 -3 c35 -3 37 -5 40 -40z m90 0 c3
-37 2 -38 -31 -38 -51 0 -60 41 -12 53 18 4 18 5 -2 6 -13 0 -23 6 -23 12 0 6
14 9 33 7 29 -3 32 -6 35 -40z m90 0 c4 -43 -15 -53 -20 -11 -4 39 -28 42 -28
4 0 -21 -5 -31 -15 -31 -11 0 -15 11 -15 41 l0 40 38 -3 c35 -3 37 -5 40 -40z
m-2788 -28 c0 -5 -4 -10 -10 -10 -5 0 -10 5 -10 10 0 6 5 10 10 10 6 0 10 -4
10 -10z m2162 -77 c-393 -2 -1032 -2 -1420 0 -389 1 -68 2 713 2 781 0 1099
-1 707 -2z"/>
<path d="M3953 14063 c-17 -6 -16 -50 1 -56 15 -6 36 11 36 29 0 16 -22 32
-37 27z"/>
<path d="M4237 14064 c-13 -13 -7 -24 14 -24 11 0 19 5 17 12 -5 14 -22 21
-31 12z"/>
<path d="M4540 14010 c0 -5 4 -10 9 -10 6 0 13 5 16 10 3 6 -1 10 -9 10 -9 0
-16 -4 -16 -10z"/>
<path d="M4830 14035 c0 -18 5 -25 19 -25 20 0 31 17 24 38 -3 6 -13 12 -24
12 -14 0 -19 -7 -19 -25z"/>
<path d="M4960 14010 c0 -5 7 -10 15 -10 8 0 15 5 15 10 0 6 -7 10 -15 10 -8
0 -15 -4 -15 -10z"/>
<path d="M5167 14064 c-13 -13 -7 -24 14 -24 11 0 19 5 17 12 -5 14 -22 21
-31 12z"/>
<path d="M5557 14064 c-13 -13 -7 -24 14 -24 11 0 19 5 17 12 -5 14 -22 21
-31 12z"/>
<path d="M5917 14064 c-13 -13 -7 -24 14 -24 11 0 19 5 17 12 -5 14 -22 21
-31 12z"/>
<path d="M6163 14063 c-17 -6 -16 -50 1 -56 15 -6 36 11 36 29 0 16 -22 32
-37 27z"/>
<path d="M6427 14064 c-13 -13 -7 -24 14 -24 11 0 19 5 17 12 -5 14 -22 21
-31 12z"/>
<path d="M2395 13760 c-3 -5 1 -10 10 -10 9 0 13 5 10 10 -3 6 -8 10 -10 10
-2 0 -7 -4 -10 -10z"/>
<path d="M6115 13758 c-4 -10 -4 -26 0 -35 8 -17 8 -17 12 0 3 9 3 25 0 35 -4
16 -4 16 -12 0z"/>
<path d="M1765 13760 c-3 -5 3 -10 15 -10 12 0 18 5 15 10 -3 6 -10 10 -15 10
-5 0 -12 -4 -15 -10z"/>
<path d="M2055 13760 c-3 -5 1 -10 10 -10 9 0 13 5 10 10 -3 6 -8 10 -10 10
-2 0 -7 -4 -10 -10z"/>
<path d="M2645 13760 c-3 -5 1 -10 10 -10 9 0 13 5 10 10 -3 6 -8 10 -10 10
-2 0 -7 -4 -10 -10z"/>
<path d="M2765 13731 c-6 -11 9 -23 19 -14 9 9 7 23 -3 23 -6 0 -12 -4 -16 -9z"/>
<path d="M2930 13755 c-10 -12 -10 -18 0 -30 15 -18 30 -11 30 15 0 26 -15 33
-30 15z"/>
<path d="M3293 13763 c-17 -6 -16 -40 1 -46 17 -7 26 1 26 24 0 21 -10 28 -27
22z"/>
<path d="M3485 13760 c-3 -5 3 -10 15 -10 12 0 18 5 15 10 -3 6 -10 10 -15 10
-5 0 -12 -4 -15 -10z"/>
<path d="M3700 13724 c0 -9 5 -14 12 -12 18 6 21 28 4 28 -9 0 -16 -7 -16 -16z"/>
<path d="M3913 13763 c-17 -6 -16 -40 1 -46 17 -7 26 1 26 24 0 21 -10 28 -27
22z"/>
<path d="M4000 13725 c0 -8 4 -15 9 -15 5 0 11 7 15 15 3 9 0 15 -9 15 -8 0
-15 -7 -15 -15z"/>
<path d="M4145 13760 c-3 -5 1 -10 10 -10 9 0 13 5 10 10 -3 6 -8 10 -10 10
-2 0 -7 -4 -10 -10z"/>
<path d="M4423 13763 c-17 -6 -16 -40 1 -46 17 -7 26 1 26 24 0 21 -10 28 -27
22z"/>
<path d="M4504 13755 c-4 -8 -4 -22 0 -30 7 -20 36 -8 36 15 0 23 -29 35 -36
15z"/>
<path d="M5115 13760 c-3 -5 1 -10 10 -10 9 0 13 5 10 10 -3 6 -8 10 -10 10
-2 0 -7 -4 -10 -10z"/>
<path d="M5375 13760 c-3 -5 1 -10 10 -10 9 0 13 5 10 10 -3 6 -8 10 -10 10
-2 0 -7 -4 -10 -10z"/>
<path d="M5665 13760 c-3 -5 3 -10 15 -10 12 0 18 5 15 10 -3 6 -10 10 -15 10
-5 0 -12 -4 -15 -10z"/>
<path d="M5958 13753 c7 -3 16 -2 19 1 4 3 -2 6 -13 5 -11 0 -14 -3 -6 -6z"/>
<path d="M6355 13730 c-3 -5 -1 -10 4 -10 6 0 11 5 11 10 0 6 -2 10 -4 10 -3
0 -8 -4 -11 -10z"/>
<path d="M7280 13740 c0 -11 7 -20 15 -20 8 0 15 9 15 20 0 11 -7 20 -15 20
-8 0 -15 -9 -15 -20z"/>
<path d="M6514 13749 c-10 -17 13 -36 27 -22 12 12 4 33 -11 33 -5 0 -12 -5
-16 -11z"/>
<path d="M7075 13730 c-3 -5 -1 -10 4 -10 6 0 11 5 11 10 0 6 -2 10 -4 10 -3
0 -8 -4 -11 -10z"/>
<path d="M7385 13730 c-3 -5 -1 -10 4 -10 6 0 11 5 11 10 0 6 -2 10 -4 10 -3
0 -8 -4 -11 -10z"/>
<path d="M7528 13753 c7 -3 16 -2 19 1 4 3 -2 6 -13 5 -11 0 -14 -3 -6 -6z"/>
<path d="M7945 13730 c-3 -5 -1 -10 4 -10 6 0 11 5 11 10 0 6 -2 10 -4 10 -3
0 -8 -4 -11 -10z"/>
<path d="M8228 13753 c7 -3 16 -2 19 1 4 3 -2 6 -13 5 -11 0 -14 -3 -6 -6z"/>
<path d="M8405 13730 c-3 -5 -1 -10 4 -10 6 0 11 5 11 10 0 6 -2 10 -4 10 -3
0 -8 -4 -11 -10z"/>
<path d="M363 13083 c32 -2 81 -2 110 0 29 2 3 3 -58 3 -60 0 -84 -1 -52 -3z"/>
<path d="M710 13048 c0 -21 2 -38 4 -38 9 0 12 50 5 62 -6 8 -9 -1 -9 -24z"/>
<path d="M918 13073 c12 -2 22 -8 22 -13 0 -5 -10 -10 -22 -12 -22 -3 -22 -4
3 -9 22 -5 26 -2 25 15 -1 15 -8 21 -26 23 -22 1 -22 1 -2 -4z"/>
<path d="M971 13038 c1 -24 4 -33 6 -21 2 12 12 24 21 26 15 4 15 5 0 6 -26 2
-22 19 5 24 19 4 18 4 -5 6 -27 1 -28 -1 -27 -41z"/>
<path d="M1230 13072 c18 -6 25 -15 25 -32 0 -17 -7 -26 -25 -32 -25 -7 -25
-7 -1 -5 13 1 29 10 35 20 15 23 -3 51 -35 54 -24 2 -24 2 1 -5z"/>
<path d="M1408 13073 c6 -2 18 -2 25 0 6 3 1 5 -13 5 -14 0 -19 -2 -12 -5z"/>
<path d="M1612 13043 c-2 -39 0 -43 21 -42 16 1 17 3 5 6 -11 3 -18 17 -21 41
l-4 37 -1 -42z"/>
<path d="M1690 13076 c0 -2 9 -6 20 -9 11 -3 18 -1 14 4 -5 9 -34 13 -34 5z"/>
<path d="M1762 13068 c-24 -24 -6 -69 28 -67 9 0 6 4 -7 9 -14 6 -23 18 -23
30 0 12 9 24 23 30 13 5 16 9 7 9 -9 1 -21 -4 -28 -11z"/>
<path d="M1840 13065 c-26 -31 13 -82 44 -56 19 16 21 42 4 59 -16 16 -33 15
-48 -3z m45 -25 c0 -16 -6 -26 -18 -28 -19 -4 -32 20 -23 44 9 25 41 13 41
-16z"/>
<path d="M9346 13071 c-4 -5 3 -7 14 -4 23 6 26 13 6 13 -8 0 -17 -4 -20 -9z"/>
<path d="M9433 13040 c0 -25 2 -35 4 -22 2 12 2 32 0 45 -2 12 -4 2 -4 -23z"/>
<path d="M9460 13040 c0 -35 3 -40 23 -39 16 1 18 2 5 6 -12 3 -18 14 -18 33
0 19 6 30 18 33 13 4 11 5 -5 6 -20 1 -23 -4 -23 -39z"/>
<path d="M9540 13040 c0 -35 3 -40 23 -39 16 1 18 2 5 6 -10 2 -18 11 -18 18
0 7 8 16 18 18 16 4 16 5 0 6 -10 0 -18 5 -18 10 0 5 8 12 18 14 13 4 11 5 -5
6 -20 1 -23 -4 -23 -39z"/>
<path d="M9693 13073 c9 -2 25 -2 35 0 9 3 1 5 -18 5 -19 0 -27 -2 -17 -5z"/>
<path d="M9753 13040 c0 -25 2 -35 4 -22 2 12 2 32 0 45 -2 12 -4 2 -4 -23z"/>
<path d="M9781 13038 c1 -24 4 -33 6 -21 2 12 12 24 21 26 15 4 15 5 0 6 -10
0 -18 5 -18 10 0 5 8 12 18 14 13 4 11 5 -5 6 -21 1 -23 -3 -22 -41z"/>
<path d="M9843 13040 c0 -25 2 -35 4 -22 2 12 2 32 0 45 -2 12 -4 2 -4 -23z"/>
<path d="M9878 13073 c6 -2 18 -2 25 0 6 3 1 5 -13 5 -14 0 -19 -2 -12 -5z"/>
<path d="M9931 13043 c1 -21 3 -30 6 -21 2 9 12 19 21 21 15 4 15 5 0 6 -10 0
-18 6 -18 11 0 13 37 13 43 0 3 -6 4 -5 3 2 -1 7 -15 14 -29 16 -25 3 -27 1
-26 -35z"/>
<path d="M810 13058 c6 -7 11 -23 11 -37 l2 -26 4 25 c3 14 10 32 16 40 10 13
10 13 -4 3 -10 -8 -19 -9 -27 -3 -9 7 -9 7 -2 -2z"/>
<path d="M1408 13043 c6 -2 18 -2 25 0 6 3 1 5 -13 5 -14 0 -19 -2 -12 -5z"/>
<path d="M9878 13043 c6 -2 18 -2 25 0 6 3 1 5 -13 5 -14 0 -19 -2 -12 -5z"/>
<path d="M363 13033 c32 -2 81 -2 110 0 29 2 3 3 -58 3 -60 0 -84 -1 -52 -3z"/>
<path d="M1046 13025 c-2 -5 11 -10 29 -10 18 0 31 5 29 10 -2 6 -15 10 -29
10 -14 0 -27 -4 -29 -10z"/>
<path d="M9375 13028 c4 -11 0 -18 -12 -21 -15 -4 -16 -5 -1 -6 22 -1 33 18
19 32 -9 9 -11 8 -6 -5z"/>
<path d="M1476 13017 c3 -10 9 -15 12 -12 3 3 0 11 -7 18 -10 9 -11 8 -5 -6z"/>
<path d="M1535 13019 c-4 -6 -5 -12 -2 -15 2 -3 7 2 10 11 7 17 1 20 -8 4z"/>
<path d="M920 13010 c-23 -7 -23 -8 -3 -9 12 -1 25 4 28 9 3 6 5 10 3 9 -2 -1
-14 -5 -28 -9z"/>
<path d="M1705 13010 c-16 -7 -17 -9 -3 -9 9 -1 20 4 23 9 7 11 7 11 -20 0z"/>
<path d="M1408 13003 c6 -2 18 -2 25 0 6 3 1 5 -13 5 -14 0 -19 -2 -12 -5z"/>
<path d="M9878 13003 c6 -2 18 -2 25 0 6 3 1 5 -13 5 -14 0 -19 -2 -12 -5z"/>
<path d="M315 12980 c3 -6 50 -10 106 -10 59 0 99 4 99 10 0 6 -42 10 -106 10
-67 0 -103 -4 -99 -10z"/>
<path d="M3883 12653 c-10 -3 -13 -40 -13 -133 0 -109 2 -129 16 -134 30 -11
43 13 46 85 l3 69 63 -80 c64 -80 78 -90 100 -68 19 19 16 242 -3 258 -31 26
-45 5 -45 -70 0 -38 -4 -70 -9 -70 -4 0 -29 27 -55 60 -72 92 -76 95 -103 83z"/>
<path d="M5610 12641 c-5 -11 -10 -66 -10 -123 0 -116 11 -145 48 -134 21 7
22 13 22 130 0 121 -6 146 -37 146 -7 0 -17 -9 -23 -19z"/>
<path d="M4198 12565 c-34 -19 -48 -44 -48 -87 0 -63 57 -106 123 -94 76 14
108 109 55 163 -31 31 -92 39 -130 18z m80 -47 c7 -7 12 -24 12 -38 0 -51 -52
-69 -72 -25 -22 49 25 98 60 63z"/>
<path d="M4403 12573 c-16 -6 -18 -135 -3 -163 14 -26 65 -35 94 -17 20 14 23
13 33 -1 9 -14 15 -15 29 -6 16 9 19 24 19 94 0 69 -3 85 -18 94 -27 17 -47
-17 -47 -80 0 -39 -4 -53 -16 -58 -29 -11 -43 13 -46 77 -3 62 -12 74 -45 60z"/>
<path d="M4623 12573 c-7 -2 -13 -13 -13 -24 0 -22 64 -154 80 -164 23 -14 48
9 83 80 41 84 44 100 21 109 -22 8 -37 -6 -59 -54 -10 -22 -21 -40 -24 -40 -3
0 -17 21 -31 47 -25 47 -35 55 -57 46z"/>
<path d="M4884 12570 c-58 -24 -74 -118 -28 -161 20 -19 36 -24 75 -23 31 0
56 6 66 16 24 25 7 40 -38 33 -26 -5 -45 -3 -54 5 -27 23 -16 30 46 30 l62 0
-7 32 c-4 18 -14 41 -24 50 -21 22 -70 31 -98 18z m64 -57 c2 -9 -7 -13 -27
-13 -30 0 -39 9 -24 24 11 10 46 3 51 -11z"/>
<path d="M5085 12573 c-30 -8 -44 -23 -38 -39 4 -11 16 -13 53 -8 38 5 48 3
53 -10 5 -13 0 -16 -26 -16 -54 0 -82 -21 -82 -60 0 -27 6 -37 28 -50 25 -14
30 -13 56 1 26 15 29 15 38 0 9 -13 15 -14 29 -5 26 15 28 145 3 169 -17 17
-80 27 -114 18z m63 -120 c-4 -22 -48 -31 -48 -10 0 19 10 27 32 27 13 0 18
-6 16 -17z"/>
<path d="M5273 12573 c-16 -6 -18 -135 -3 -163 14 -26 65 -35 94 -17 20 14 23
13 33 -1 9 -14 15 -15 29 -6 16 9 19 24 19 94 0 69 -3 85 -18 94 -27 17 -47
-17 -47 -80 0 -39 -4 -53 -16 -58 -29 -11 -43 13 -46 77 -3 62 -12 74 -45 60z"/>
<path d="M5770 12573 c-63 -25 -81 -107 -36 -160 21 -24 32 -28 76 -28 44 0
55 4 76 28 53 62 18 154 -61 162 -22 3 -47 2 -55 -2z m72 -68 c22 -49 -25 -98
-60 -63 -7 7 -12 24 -12 38 0 51 52 69 72 25z"/>
<path d="M5984 12568 c-45 -21 -59 -108 -24 -146 26 -27 62 -37 88 -23 28 15
32 14 32 -8 0 -25 -30 -34 -79 -26 -44 7 -62 -8 -39 -32 23 -22 88 -27 131
-10 47 20 57 46 57 151 0 96 -13 119 -54 96 -18 -9 -29 -9 -44 -1 -25 13 -40
13 -68 -1z m84 -50 c7 -7 12 -21 12 -33 0 -46 -53 -62 -71 -21 -21 45 26 87
59 54z"/>
<path d="M6245 12571 c-61 -25 -80 -108 -36 -155 44 -47 131 -43 166 8 17 24
20 79 5 107 -21 39 -88 59 -135 40z m75 -66 c12 -32 -3 -75 -28 -75 -25 0 -42
20 -42 50 0 51 53 70 70 25z"/>
<path d="M3484 12168 c-22 -10 -44 -47 -44 -73 0 -71 94 -110 144 -59 68 67
-14 174 -100 132z m57 -71 c5 -35 4 -37 -20 -37 -19 0 -22 3 -13 12 15 15 16
48 1 48 -5 0 -7 5 -4 11 12 19 30 3 36 -34z"/>
<path d="M4674 12168 c-22 -10 -44 -47 -44 -73 0 -71 94 -110 144 -59 68 67
-14 174 -100 132z m62 -43 c4 -8 0 -22 -7 -31 -10 -13 -10 -17 2 -25 10 -6 7
-9 -13 -9 -31 0 -36 11 -13 30 21 17 19 30 -6 30 -11 0 -17 5 -14 10 10 15 45
12 51 -5z"/>
<path d="M5934 12168 c-22 -10 -44 -47 -44 -73 0 -71 94 -110 144 -59 68 67
-14 174 -100 132z m63 -66 c3 -36 -14 -50 -44 -36 -16 7 -15 8 5 11 23 5 31
23 10 23 -9 0 -8 4 2 10 12 8 10 10 -8 10 -14 0 -21 4 -17 11 4 5 16 9 28 7
16 -2 22 -11 24 -36z"/>
<path d="M3810 12092 c0 -17 3 -33 8 -35 9 -6 8 50 -1 60 -4 3 -7 -8 -7 -25z"/>
<path d="M5352 12090 c0 -19 2 -27 5 -17 2 9 2 25 0 35 -3 9 -5 1 -5 -18z"/>
<path d="M3756 12102 c-2 -4 4 -8 14 -8 10 0 16 4 14 8 -3 4 -9 8 -14 8 -5 0
-11 -4 -14 -8z"/>
<path d="M3948 12103 c6 -2 18 -2 25 0 6 3 1 5 -13 5 -14 0 -19 -2 -12 -5z"/>
<path d="M4054 12095 c-9 -23 3 -45 23 -44 17 1 17 2 1 6 -21 5 -24 39 -5 46
9 4 9 6 -1 6 -7 1 -15 -6 -18 -14z"/>
<path d="M4146 12102 c-2 -4 4 -8 14 -8 10 0 16 4 14 8 -3 4 -9 8 -14 8 -5 0
-11 -4 -14 -8z"/>
<path d="M4206 12102 c-2 -4 4 -8 14 -8 10 0 16 4 14 8 -3 4 -9 8 -14 8 -5 0
-11 -4 -14 -8z"/>
<path d="M4262 12080 c0 -19 2 -27 5 -17 2 9 2 25 0 35 -3 9 -5 1 -5 -18z"/>
<path d="M4942 12096 c7 -8 15 -12 17 -11 5 6 -10 25 -20 25 -5 0 -4 -6 3 -14z"/>
<path d="M5035 12099 c-11 -16 -1 -19 13 -3 7 8 8 14 3 14 -5 0 -13 -5 -16
-11z"/>
<path d="M5092 12080 c0 -19 2 -27 5 -17 2 9 2 25 0 35 -3 9 -5 1 -5 -18z"/>
<path d="M5393 12104 c9 -3 17 -14 17 -24 0 -10 -8 -21 -17 -24 -14 -4 -14 -4
2 -3 14 2 20 10 20 27 0 17 -6 25 -20 27 -16 1 -16 1 -2 -3z"/>
<path d="M5506 12102 c-2 -4 4 -8 14 -8 10 0 16 4 14 8 -3 4 -9 8 -14 8 -5 0
-11 -4 -14 -8z"/>
<path d="M5565 12099 c-11 -16 -1 -19 13 -3 7 8 8 14 3 14 -5 0 -13 -5 -16
-11z"/>
<path d="M6204 12095 c-9 -23 3 -45 23 -44 17 1 17 2 1 6 -21 5 -24 39 -5 46
9 4 9 6 -1 6 -7 1 -15 -6 -18 -14z"/>
<path d="M6355 12099 c-11 -16 -1 -19 13 -3 7 8 8 14 3 14 -5 0 -13 -5 -16
-11z"/>
<path d="M6412 12080 c0 -19 2 -27 5 -17 2 9 2 25 0 35 -3 9 -5 1 -5 -18z"/>
<path d="M6496 12103 c7 -4 14 -19 17 -33 4 -22 5 -21 4 4 -1 17 -9 31 -17 33
-10 3 -11 2 -4 -4z"/>
<path d="M6548 12103 c7 -3 16 -2 19 1 4 3 -2 6 -13 5 -11 0 -14 -3 -6 -6z"/>
<path d="M6622 12080 c0 -19 2 -27 5 -17 2 9 2 25 0 35 -3 9 -5 1 -5 -18z"/>
<path d="M6658 12103 c7 -3 16 -2 19 1 4 3 -2 6 -13 5 -11 0 -14 -3 -6 -6z"/>
<path d="M4882 12080 c0 -14 2 -19 5 -12 2 6 2 18 0 25 -3 6 -5 1 -5 -13z"/>
<path d="M5471 12073 c-1 -21 -7 -33 -18 -36 -17 -4 -17 -5 0 -6 21 -1 30 18
24 51 -3 18 -5 16 -6 -9z"/>
<path d="M6142 12070 c0 -19 2 -27 5 -17 2 9 2 25 0 35 -3 9 -5 1 -5 -18z"/>
<path d="M6262 12080 c0 -14 2 -19 5 -12 2 6 2 18 0 25 -3 6 -5 1 -5 -13z"/>
<path d="M4332 12070 c0 -14 2 -19 5 -12 2 6 2 18 0 25 -3 6 -5 1 -5 -13z"/>
<path d="M5000 12081 c0 -7 -4 -9 -10 -6 -6 4 -7 -1 -3 -11 6 -15 7 -15 15 1
6 9 7 19 4 22 -3 4 -6 1 -6 -6z"/>
<path d="M6571 12074 c0 -11 3 -14 6 -6 3 7 2 16 -1 19 -3 4 -6 -2 -5 -13z"/>
<path d="M3697 12059 c7 -7 15 -10 18 -7 3 3 -2 9 -12 12 -14 6 -15 5 -6 -5z"/>
<path d="M4207 12059 c7 -7 15 -10 18 -7 3 3 -2 9 -12 12 -14 6 -15 5 -6 -5z"/>
<path d="M5037 12059 c7 -7 15 -10 18 -7 3 3 -2 9 -12 12 -14 6 -15 5 -6 -5z"/>
<path d="M5217 12059 c7 -7 15 -10 18 -7 3 3 -2 9 -12 12 -14 6 -15 5 -6 -5z"/>
<path d="M5507 12059 c7 -7 15 -10 18 -7 3 3 -2 9 -12 12 -14 6 -15 5 -6 -5z"/>
<path d="M5580 12060 c-9 -6 -10 -10 -3 -10 6 0 15 5 18 10 8 12 4 12 -15 0z"/>
<path d="M6357 12059 c7 -7 15 -10 18 -7 3 3 -2 9 -12 12 -14 6 -15 5 -6 -5z"/>
<path d="M6707 12059 c7 -7 15 -10 18 -7 3 3 -2 9 -12 12 -14 6 -15 5 -6 -5z"/>
<path d="M3948 12053 c6 -2 18 -2 25 0 6 3 1 5 -13 5 -14 0 -19 -2 -12 -5z"/>
<path d="M5278 12053 c7 -3 16 -2 19 1 4 3 -2 6 -13 5 -11 0 -14 -3 -6 -6z"/>
<path d="M6308 12053 c7 -3 16 -2 19 1 4 3 -2 6 -13 5 -11 0 -14 -3 -6 -6z"/>
<path d="M6658 12053 c7 -3 16 -2 19 1 4 3 -2 6 -13 5 -11 0 -14 -3 -6 -6z"/>
<path d="M933 11953 c9 -2 25 -2 35 0 9 3 1 5 -18 5 -19 0 -27 -2 -17 -5z"/>
<path d="M1053 11953 c9 -2 25 -2 35 0 9 3 1 5 -18 5 -19 0 -27 -2 -17 -5z"/>
<path d="M1183 11953 c9 -2 25 -2 35 0 9 3 1 5 -18 5 -19 0 -27 -2 -17 -5z"/>
<path d="M1303 11953 c9 -2 25 -2 35 0 9 3 1 5 -18 5 -19 0 -27 -2 -17 -5z"/>
<path d="M1423 11953 c9 -2 25 -2 35 0 9 3 1 5 -18 5 -19 0 -27 -2 -17 -5z"/>
<path d="M1553 11953 c9 -2 25 -2 35 0 9 3 1 5 -18 5 -19 0 -27 -2 -17 -5z"/>
<path d="M1673 11953 c9 -2 25 -2 35 0 9 3 1 5 -18 5 -19 0 -27 -2 -17 -5z"/>
<path d="M1793 11953 c9 -2 25 -2 35 0 9 3 1 5 -18 5 -19 0 -27 -2 -17 -5z"/>
<path d="M1923 11953 c9 -2 25 -2 35 0 9 3 1 5 -18 5 -19 0 -27 -2 -17 -5z"/>
<path d="M2043 11953 c9 -2 25 -2 35 0 9 3 1 5 -18 5 -19 0 -27 -2 -17 -5z"/>
<path d="M2173 11953 c9 -2 25 -2 35 0 9 3 1 5 -18 5 -19 0 -27 -2 -17 -5z"/>
<path d="M2293 11953 c9 -2 25 -2 35 0 9 3 1 5 -18 5 -19 0 -27 -2 -17 -5z"/>
<path d="M2413 11953 c9 -2 25 -2 35 0 9 3 1 5 -18 5 -19 0 -27 -2 -17 -5z"/>
<path d="M2543 11953 c9 -2 25 -2 35 0 9 3 1 5 -18 5 -19 0 -27 -2 -17 -5z"/>
<path d="M2663 11953 c9 -2 25 -2 35 0 9 3 1 5 -18 5 -19 0 -27 -2 -17 -5z"/>
<path d="M2783 11953 c9 -2 25 -2 35 0 9 3 1 5 -18 5 -19 0 -27 -2 -17 -5z"/>
<path d="M2913 11953 c9 -2 25 -2 35 0 9 3 1 5 -18 5 -19 0 -27 -2 -17 -5z"/>
<path d="M3033 11953 c9 -2 25 -2 35 0 9 3 1 5 -18 5 -19 0 -27 -2 -17 -5z"/>
<path d="M3163 11953 c9 -2 25 -2 35 0 9 3 1 5 -18 5 -19 0 -27 -2 -17 -5z"/>
<path d="M3283 11953 c9 -2 25 -2 35 0 9 3 1 5 -18 5 -19 0 -27 -2 -17 -5z"/>
<path d="M3403 11953 c9 -2 25 -2 35 0 9 3 1 5 -18 5 -19 0 -27 -2 -17 -5z"/>
<path d="M3533 11953 c9 -2 25 -2 35 0 9 3 1 5 -18 5 -19 0 -27 -2 -17 -5z"/>
<path d="M3653 11953 c9 -2 25 -2 35 0 9 3 1 5 -18 5 -19 0 -27 -2 -17 -5z"/>
<path d="M3773 11953 c9 -2 25 -2 35 0 9 3 1 5 -18 5 -19 0 -27 -2 -17 -5z"/>
<path d="M3903 11953 c9 -2 25 -2 35 0 9 3 1 5 -18 5 -19 0 -27 -2 -17 -5z"/>
<path d="M4023 11953 c9 -2 25 -2 35 0 9 3 1 5 -18 5 -19 0 -27 -2 -17 -5z"/>
<path d="M4153 11953 c9 -2 25 -2 35 0 9 3 1 5 -18 5 -19 0 -27 -2 -17 -5z"/>
<path d="M4273 11953 c9 -2 25 -2 35 0 9 3 1 5 -18 5 -19 0 -27 -2 -17 -5z"/>
<path d="M4393 11953 c9 -2 25 -2 35 0 9 3 1 5 -18 5 -19 0 -27 -2 -17 -5z"/>
<path d="M4523 11953 c9 -2 25 -2 35 0 9 3 1 5 -18 5 -19 0 -27 -2 -17 -5z"/>
<path d="M4643 11953 c9 -2 25 -2 35 0 9 3 1 5 -18 5 -19 0 -27 -2 -17 -5z"/>
<path d="M4763 11953 c9 -2 25 -2 35 0 9 3 1 5 -18 5 -19 0 -27 -2 -17 -5z"/>
<path d="M4893 11953 c9 -2 25 -2 35 0 9 3 1 5 -18 5 -19 0 -27 -2 -17 -5z"/>
<path d="M5013 11953 c9 -2 25 -2 35 0 9 3 1 5 -18 5 -19 0 -27 -2 -17 -5z"/>
<path d="M5143 11953 c9 -2 25 -2 35 0 9 3 1 5 -18 5 -19 0 -27 -2 -17 -5z"/>
<path d="M5263 11953 c9 -2 25 -2 35 0 9 3 1 5 -18 5 -19 0 -27 -2 -17 -5z"/>
<path d="M5383 11953 c9 -2 25 -2 35 0 9 3 1 5 -18 5 -19 0 -27 -2 -17 -5z"/>
<path d="M5513 11953 c9 -2 25 -2 35 0 9 3 1 5 -18 5 -19 0 -27 -2 -17 -5z"/>
<path d="M5633 11953 c9 -2 25 -2 35 0 9 3 1 5 -18 5 -19 0 -27 -2 -17 -5z"/>
<path d="M5753 11953 c9 -2 25 -2 35 0 9 3 1 5 -18 5 -19 0 -27 -2 -17 -5z"/>
<path d="M5883 11953 c9 -2 25 -2 35 0 9 3 1 5 -18 5 -19 0 -27 -2 -17 -5z"/>
<path d="M6003 11953 c9 -2 25 -2 35 0 9 3 1 5 -18 5 -19 0 -27 -2 -17 -5z"/>
<path d="M6128 11953 c12 -2 30 -2 40 0 9 3 -1 5 -23 4 -22 0 -30 -2 -17 -4z"/>
<path d="M6253 11953 c9 -2 25 -2 35 0 9 3 1 5 -18 5 -19 0 -27 -2 -17 -5z"/>
<path d="M6373 11953 c9 -2 25 -2 35 0 9 3 1 5 -18 5 -19 0 -27 -2 -17 -5z"/>
<path d="M6503 11953 c9 -2 25 -2 35 0 9 3 1 5 -18 5 -19 0 -27 -2 -17 -5z"/>
<path d="M6623 11953 c9 -2 25 -2 35 0 9 3 1 5 -18 5 -19 0 -27 -2 -17 -5z"/>
<path d="M6743 11953 c9 -2 25 -2 35 0 9 3 1 5 -18 5 -19 0 -27 -2 -17 -5z"/>
<path d="M6873 11953 c9 -2 25 -2 35 0 9 3 1 5 -18 5 -19 0 -27 -2 -17 -5z"/>
<path d="M6993 11953 c9 -2 25 -2 35 0 9 3 1 5 -18 5 -19 0 -27 -2 -17 -5z"/>
<path d="M7113 11953 c9 -2 25 -2 35 0 9 3 1 5 -18 5 -19 0 -27 -2 -17 -5z"/>
<path d="M7243 11953 c9 -2 25 -2 35 0 9 3 1 5 -18 5 -19 0 -27 -2 -17 -5z"/>
<path d="M7363 11953 c9 -2 25 -2 35 0 9 3 1 5 -18 5 -19 0 -27 -2 -17 -5z"/>
<path d="M7493 11953 c9 -2 25 -2 35 0 9 3 1 5 -18 5 -19 0 -27 -2 -17 -5z"/>
<path d="M7613 11953 c9 -2 25 -2 35 0 9 3 1 5 -18 5 -19 0 -27 -2 -17 -5z"/>
<path d="M7733 11953 c9 -2 25 -2 35 0 9 3 1 5 -18 5 -19 0 -27 -2 -17 -5z"/>
<path d="M7863 11953 c9 -2 25 -2 35 0 9 3 1 5 -18 5 -19 0 -27 -2 -17 -5z"/>
<path d="M7983 11953 c9 -2 25 -2 35 0 9 3 1 5 -18 5 -19 0 -27 -2 -17 -5z"/>
<path d="M8103 11953 c9 -2 25 -2 35 0 9 3 1 5 -18 5 -19 0 -27 -2 -17 -5z"/>
<path d="M8233 11953 c9 -2 25 -2 35 0 9 3 1 5 -18 5 -19 0 -27 -2 -17 -5z"/>
<path d="M8353 11953 c9 -2 25 -2 35 0 9 3 1 5 -18 5 -19 0 -27 -2 -17 -5z"/>
<path d="M8483 11953 c9 -2 25 -2 35 0 9 3 1 5 -18 5 -19 0 -27 -2 -17 -5z"/>
<path d="M8603 11953 c9 -2 25 -2 35 0 9 3 1 5 -18 5 -19 0 -27 -2 -17 -5z"/>
<path d="M8723 11953 c9 -2 25 -2 35 0 9 3 1 5 -18 5 -19 0 -27 -2 -17 -5z"/>
<path d="M8853 11953 c9 -2 25 -2 35 0 9 3 1 5 -18 5 -19 0 -27 -2 -17 -5z"/>
<path d="M8973 11953 c9 -2 25 -2 35 0 9 3 1 5 -18 5 -19 0 -27 -2 -17 -5z"/>
<path d="M9093 11953 c9 -2 25 -2 35 0 9 3 1 5 -18 5 -19 0 -27 -2 -17 -5z"/>
<path d="M9223 11953 c9 -2 25 -2 35 0 9 3 1 5 -18 5 -19 0 -27 -2 -17 -5z"/>
<path d="M9330 11956 c0 -2 14 -6 30 -8 17 -3 30 -1 30 4 0 4 -13 8 -30 8 -16
0 -30 -2 -30 -4z"/>
<path d="M853 11875 c0 -22 2 -30 4 -17 2 12 2 30 0 40 -3 9 -5 -1 -4 -23z"/>
<path d="M9382 11850 c0 -19 2 -27 5 -17 2 9 2 25 0 35 -3 9 -5 1 -5 -18z"/>
<path d="M852 11750 c0 -19 2 -27 5 -17 2 9 2 25 0 35 -3 9 -5 1 -5 -18z"/>
<path d="M9382 11730 c0 -19 2 -27 5 -17 2 9 2 25 0 35 -3 9 -5 1 -5 -18z"/>
<path d="M852 11630 c0 -19 2 -27 5 -17 2 9 2 25 0 35 -3 9 -5 1 -5 -18z"/>
<path d="M9382 11600 c0 -19 2 -27 5 -17 2 9 2 25 0 35 -3 9 -5 1 -5 -18z"/>
<path d="M852 11500 c0 -19 2 -27 5 -17 2 9 2 25 0 35 -3 9 -5 1 -5 -18z"/>
<path d="M9382 11480 c0 -19 2 -27 5 -17 2 9 2 25 0 35 -3 9 -5 1 -5 -18z"/>
<path d="M852 11380 c0 -19 2 -27 5 -17 2 9 2 25 0 35 -3 9 -5 1 -5 -18z"/>
<path d="M9382 11360 c0 -19 2 -27 5 -17 2 9 2 25 0 35 -3 9 -5 1 -5 -18z"/>
<path d="M852 11260 c0 -19 2 -27 5 -17 2 9 2 25 0 35 -3 9 -5 1 -5 -18z"/>
<path d="M9382 11230 c0 -19 2 -27 5 -17 2 9 2 25 0 35 -3 9 -5 1 -5 -18z"/>
<path d="M852 11130 c0 -19 2 -27 5 -17 2 9 2 25 0 35 -3 9 -5 1 -5 -18z"/>
<path d="M9382 11110 c0 -19 2 -27 5 -17 2 9 2 25 0 35 -3 9 -5 1 -5 -18z"/>
<path d="M852 11010 c0 -19 2 -27 5 -17 2 9 2 25 0 35 -3 9 -5 1 -5 -18z"/>
<path d="M9382 10990 c0 -19 2 -27 5 -17 2 9 2 25 0 35 -3 9 -5 1 -5 -18z"/>
<path d="M853 10885 c0 -22 2 -30 4 -17 2 12 2 30 0 40 -3 9 -5 -1 -4 -23z"/>
<path d="M9382 10860 c0 -19 2 -27 5 -17 2 9 2 25 0 35 -3 9 -5 1 -5 -18z"/>
<path d="M852 10760 c0 -19 2 -27 5 -17 2 9 2 25 0 35 -3 9 -5 1 -5 -18z"/>
<path d="M9382 10740 c0 -19 2 -27 5 -17 2 9 2 25 0 35 -3 9 -5 1 -5 -18z"/>
<path d="M852 10640 c0 -19 2 -27 5 -17 2 9 2 25 0 35 -3 9 -5 1 -5 -18z"/>
<path d="M9383 10615 c0 -22 2 -30 4 -17 2 12 2 30 0 40 -3 9 -5 -1 -4 -23z"/>
<path d="M852 10510 c0 -19 2 -27 5 -17 2 9 2 25 0 35 -3 9 -5 1 -5 -18z"/>
<path d="M9382 10490 c0 -19 2 -27 5 -17 2 9 2 25 0 35 -3 9 -5 1 -5 -18z"/>
<path d="M852 10390 c0 -19 2 -27 5 -17 2 9 2 25 0 35 -3 9 -5 1 -5 -18z"/>
<path d="M9382 10370 c0 -19 2 -27 5 -17 2 9 2 25 0 35 -3 9 -5 1 -5 -18z"/>
<path d="M852 10270 c0 -19 2 -27 5 -17 2 9 2 25 0 35 -3 9 -5 1 -5 -18z"/>
<path d="M9382 10240 c0 -19 2 -27 5 -17 2 9 2 25 0 35 -3 9 -5 1 -5 -18z"/>
<path d="M852 10140 c0 -19 2 -27 5 -17 2 9 2 25 0 35 -3 9 -5 1 -5 -18z"/>
<path d="M9382 10120 c0 -19 2 -27 5 -17 2 9 2 25 0 35 -3 9 -5 1 -5 -18z"/>
<path d="M852 10020 c0 -19 2 -27 5 -17 2 9 2 25 0 35 -3 9 -5 1 -5 -18z"/>
<path d="M9382 10000 c0 -19 2 -27 5 -17 2 9 2 25 0 35 -3 9 -5 1 -5 -18z"/>
<path d="M853 9895 c0 -22 2 -30 4 -17 2 12 2 30 0 40 -3 9 -5 -1 -4 -23z"/>
<path d="M9382 9870 c0 -19 2 -27 5 -17 2 9 2 25 0 35 -3 9 -5 1 -5 -18z"/>
<path d="M852 9770 c0 -19 2 -27 5 -17 2 9 2 25 0 35 -3 9 -5 1 -5 -18z"/>
<path d="M9382 9750 c0 -19 2 -27 5 -17 2 9 2 25 0 35 -3 9 -5 1 -5 -18z"/>
<path d="M852 9650 c0 -19 2 -27 5 -17 2 9 2 25 0 35 -3 9 -5 1 -5 -18z"/>
<path d="M9383 9625 c0 -22 2 -30 4 -17 2 12 2 30 0 40 -3 9 -5 -1 -4 -23z"/>
<path d="M2500 9215 l0 -435 373 2 372 3 0 430 0 430 -372 3 -373 2 0 -435z
m100 365 c0 -39 -1 -40 -35 -40 -34 0 -35 1 -35 40 0 39 1 40 35 40 34 0 35
-1 35 -40z m620 0 c0 -39 -1 -40 -35 -40 -34 0 -35 1 -35 40 0 39 1 40 35 40
34 0 35 -1 35 -40z m-100 -155 l0 -175 -245 0 -245 0 0 175 0 175 245 0 245 0
0 -175z m-520 50 c0 -33 -2 -35 -35 -35 -33 0 -35 2 -35 35 0 33 2 35 35 35
33 0 35 -2 35 -35z m620 0 c0 -33 -2 -35 -35 -35 -33 0 -35 2 -35 35 0 33 2
35 35 35 33 0 35 -2 35 -35z m-620 -110 c0 -33 -2 -35 -35 -35 -33 0 -35 2
-35 35 0 33 2 35 35 35 33 0 35 -2 35 -35z m620 0 c0 -33 -2 -35 -35 -35 -33
0 -35 2 -35 35 0 33 2 35 35 35 33 0 35 -2 35 -35z m-620 -100 c0 -33 -2 -35
-35 -35 -33 0 -35 2 -35 35 0 33 2 35 35 35 33 0 35 -2 35 -35z m620 0 c0 -33
-2 -35 -35 -35 -33 0 -35 2 -35 35 0 33 2 35 35 35 33 0 35 -2 35 -35z m-620
-100 c0 -33 -2 -35 -35 -35 -33 0 -35 2 -35 35 0 33 2 35 35 35 33 0 35 -2 35
-35z m620 0 c0 -33 -2 -35 -35 -35 -33 0 -35 2 -35 35 0 33 2 35 35 35 33 0
35 -2 35 -35z m-100 -160 l0 -175 -245 0 -245 0 0 175 0 175 245 0 245 0 0
-175z m-520 55 c0 -39 -1 -40 -35 -40 -34 0 -35 1 -35 40 0 39 1 40 35 40 34
0 35 -1 35 -40z m620 0 c0 -39 -1 -40 -35 -40 -34 0 -35 1 -35 40 0 39 1 40
35 40 34 0 35 -1 35 -40z m-620 -105 c0 -33 -2 -35 -35 -35 -33 0 -35 2 -35
35 0 33 2 35 35 35 33 0 35 -2 35 -35z m620 0 c0 -33 -2 -35 -35 -35 -33 0
-35 2 -35 35 0 33 2 35 35 35 33 0 35 -2 35 -35z m-620 -105 c0 -39 -1 -40
-35 -40 -34 0 -35 1 -35 40 0 39 1 40 35 40 34 0 35 -1 35 -40z m620 0 c0 -39
-1 -40 -35 -40 -34 0 -35 1 -35 40 0 39 1 40 35 40 34 0 35 -1 35 -40z"/>
<path d="M852 9520 c0 -19 2 -27 5 -17 2 9 2 25 0 35 -3 9 -5 1 -5 -18z"/>
<path d="M9382 9500 c0 -19 2 -27 5 -17 2 9 2 25 0 35 -3 9 -5 1 -5 -18z"/>
<path d="M4015 9490 c-58 -30 -79 -64 -83 -136 -7 -110 46 -174 144 -174 93 0
147 62 146 167 -1 122 -107 195 -207 143z m100 -40 c46 -17 71 -115 44 -173
-25 -54 -105 -66 -148 -22 -22 22 -26 34 -26 86 0 56 3 63 33 90 34 31 55 35
97 19z"/>
<path d="M4405 9496 c-61 -27 -95 -85 -95 -162 0 -87 51 -145 133 -152 91 -7
149 40 163 134 19 127 -94 227 -201 180z m116 -65 c24 -25 29 -37 29 -81 0
-64 -21 -105 -59 -118 -57 -20 -105 7 -121 70 -31 114 75 205 151 129z"/>
<path d="M6244 9491 c-96 -44 -113 -204 -30 -280 39 -37 128 -41 176 -9 51 34
72 81 67 150 -4 66 -40 122 -93 144 -44 19 -71 17 -120 -5z m123 -55 c26 -22
28 -30 28 -95 0 -89 -19 -114 -86 -113 -64 1 -89 33 -89 113 0 54 3 64 29 90
37 36 79 38 118 5z"/>
<path d="M7242 9491 c-95 -45 -111 -204 -28 -280 55 -51 172 -37 213 25 16 25
16 27 -2 40 -17 13 -22 11 -46 -16 -22 -23 -36 -30 -66 -30 -21 0 -48 7 -60
15 -31 22 -47 85 -33 133 14 54 42 77 93 76 33 -1 46 -8 67 -33 24 -28 28 -29
45 -17 18 13 18 15 2 40 -40 60 -115 79 -185 47z"/>
<path d="M3510 9340 l0 -160 25 0 c24 0 24 0 27 112 l3 112 36 -94 c34 -89 38
-95 64 -95 26 0 30 6 64 95 l36 94 3 -112 c3 -112 3 -112 27 -112 l25 0 0 160
0 160 -34 0 c-33 0 -35 -2 -61 -72 -15 -40 -35 -91 -45 -113 l-17 -40 -21 58
c-12 31 -31 82 -43 112 -19 52 -22 55 -55 55 l-34 0 0 -160z"/>
<path d="M4680 9496 c0 -3 16 -48 36 -98 20 -51 39 -102 44 -113 4 -11 12 -31
18 -45 5 -14 13 -33 16 -43 4 -12 14 -17 27 -15 18 2 32 30 80 152 33 82 59
153 59 158 0 5 -12 8 -26 6 -24 -3 -31 -14 -68 -110 -22 -60 -43 -108 -46
-108 -3 0 -23 49 -45 108 -37 98 -42 107 -67 110 -16 2 -28 1 -28 -2z"/>
<path d="M5060 9340 l0 -160 25 0 25 0 0 160 0 160 -25 0 -25 0 0 -160z"/>
<path d="M5240 9340 l0 -161 103 3 c94 3 102 4 102 23 0 18 -8 20 -77 23 l-78
3 0 39 0 39 68 3 c60 3 67 5 70 25 3 21 -1 22 -65 25 l-68 3 -3 42 -3 42 78 3
c70 3 78 5 78 23 0 19 -8 20 -102 23 l-103 3 0 -161z"/>
<path d="M5560 9340 l0 -161 23 3 c20 3 22 9 25 64 l3 61 45 6 c91 10 134 92
80 154 -21 25 -31 28 -100 31 l-76 4 0 -162z m131 100 c43 -23 5 -80 -53 -80
-26 0 -28 2 -28 45 0 44 1 45 31 45 17 0 39 -5 50 -10z"/>
<path d="M5860 9340 l0 -160 25 0 c23 0 24 3 27 68 3 59 5 67 23 67 13 0 31
-20 58 -67 34 -60 42 -68 69 -68 29 0 30 1 16 23 -8 12 -27 44 -43 70 l-28 48
27 28 c38 39 36 91 -5 125 -26 23 -40 26 -100 26 l-69 0 0 -160z m138 98 c18
-18 14 -56 -7 -68 -11 -5 -33 -10 -50 -10 -30 0 -31 1 -31 45 l0 45 38 0 c21
0 43 -5 50 -12z"/>
<path d="M6570 9475 c0 -24 3 -25 60 -25 l60 0 0 -93 c0 -61 -5 -99 -13 -111
-19 -26 -68 -18 -84 14 -7 14 -17 25 -23 24 -5 -1 -17 -2 -26 -2 -21 -3 -9
-39 24 -74 35 -37 98 -39 139 -4 28 24 28 25 31 160 l4 136 -86 0 c-85 0 -86
0 -86 -25z"/>
<path d="M6860 9340 l0 -160 105 0 c105 0 105 0 105 25 0 23 -3 24 -77 27
l-78 3 -3 37 -3 37 73 3 c67 3 73 5 76 25 3 21 -1 22 -70 25 l-73 3 0 40 0 40
78 3 c74 3 77 4 77 27 0 25 0 25 -105 25 l-105 0 0 -160z"/>
<path d="M7510 9475 c0 -23 3 -25 50 -25 l50 0 0 -135 0 -135 25 0 25 0 0 134
0 135 48 3 c40 3 47 6 50 26 3 22 2 22 -122 22 l-126 0 0 -25z"/>
<path d="M852 9400 c0 -19 2 -27 5 -17 2 9 2 25 0 35 -3 9 -5 1 -5 -18z"/>
<path d="M9382 9380 c0 -19 2 -27 5 -17 2 9 2 25 0 35 -3 9 -5 1 -5 -18z"/>
<path d="M852 9280 c0 -19 2 -27 5 -17 2 9 2 25 0 35 -3 9 -5 1 -5 -18z"/>
<path d="M9382 9250 c0 -19 2 -27 5 -17 2 9 2 25 0 35 -3 9 -5 1 -5 -18z"/>
<path d="M852 9150 c0 -19 2 -27 5 -17 2 9 2 25 0 35 -3 9 -5 1 -5 -18z"/>
<path d="M9382 9130 c0 -19 2 -27 5 -17 2 9 2 25 0 35 -3 9 -5 1 -5 -18z"/>
<path d="M5665 9080 c-3 -5 -1 -10 4 -10 6 0 11 5 11 10 0 6 -2 10 -4 10 -3 0
-8 -4 -11 -10z"/>
<path d="M852 9030 c0 -19 2 -27 5 -17 2 9 2 25 0 35 -3 9 -5 1 -5 -18z"/>
<path d="M3517 9053 c-11 -10 -8 -123 3 -123 6 0 10 11 10 25 0 21 5 25 33 26
l32 1 -30 7 c-23 5 -31 12 -33 33 -3 24 0 27 35 31 l38 4 -41 1 c-22 1 -44 -1
-47 -5z"/>
<path d="M3646 9004 c-28 -61 -34 -90 -12 -61 17 23 72 23 85 0 5 -10 12 -15
16 -11 6 6 -51 128 -59 128 -3 0 -16 -25 -30 -56z m54 -21 c0 -13 -31 -18 -43
-7 -3 3 -1 17 6 31 10 23 12 24 24 7 7 -10 13 -24 13 -31z"/>
<path d="M3773 8995 c0 -38 2 -53 4 -32 2 20 2 52 0 70 -2 17 -4 1 -4 -38z"/>
<path d="M3833 9053 c13 -4 17 -15 17 -58 0 -30 5 -57 10 -60 6 -4 10 15 10
50 0 48 3 57 23 65 17 7 11 9 -28 8 -27 0 -42 -2 -32 -5z"/>
<path d="M3944 9046 c-3 -7 -4 -38 -2 -67 l3 -54 43 -3 c25 -2 42 1 42 7 0 6
-16 11 -36 11 -31 0 -35 3 -32 22 2 16 12 25 33 29 l30 7 -33 1 c-29 1 -33 4
-30 24 2 16 12 24 38 28 l35 6 -43 2 c-28 1 -44 -4 -48 -13z"/>
<path d="M4127 9053 c-11 -10 -8 -111 3 -118 6 -3 10 1 10 9 0 9 13 18 35 22
46 8 62 36 40 70 -11 17 -25 24 -49 24 -18 0 -36 -3 -39 -7z m73 -18 c20 -25
8 -50 -25 -50 -31 0 -43 20 -31 51 7 18 40 18 56 -1z"/>
<path d="M4275 9000 c-16 -33 -26 -63 -22 -66 4 -4 9 1 13 10 8 21 67 22 84 1
25 -30 21 -6 -9 54 -17 34 -33 61 -34 61 -2 0 -16 -27 -32 -60z m55 -17 c0
-13 -31 -18 -43 -7 -3 3 -1 17 6 31 10 23 12 24 24 7 7 -10 13 -24 13 -31z"/>
<path d="M4407 9053 c-4 -3 -6 -34 -6 -67 1 -34 3 -54 6 -45 7 27 45 32 65 9
21 -26 32 -26 17 1 -8 15 -8 24 0 32 16 16 14 43 -5 61 -15 16 -65 22 -77 9z
m59 -11 c35 -24 15 -66 -28 -60 -23 3 -34 27 -24 54 6 15 34 19 52 6z"/>
<path d="M4538 9053 c20 -4 22 -10 22 -64 0 -33 4 -59 10 -59 6 0 10 25 10 55
0 48 3 57 23 65 17 7 9 9 -33 8 -30 0 -45 -3 -32 -5z"/>
<path d="M4714 9046 c-3 -7 -4 -38 -2 -67 l3 -54 43 -3 c25 -2 42 1 42 7 0 6
-15 11 -34 11 -19 0 -38 5 -41 10 -10 16 13 38 43 43 25 4 24 4 -5 6 -59 2
-51 46 10 54 27 3 25 4 -11 5 -28 1 -44 -3 -48 -12z"/>
<path d="M4897 9053 c-9 -8 -9 -96 -1 -117 13 -33 94 -11 113 30 13 29 0 68
-28 83 -22 12 -74 15 -84 4z m90 -25 c16 -13 17 -60 1 -76 -7 -7 -27 -12 -45
-12 -33 0 -33 0 -33 48 0 27 3 52 7 56 9 9 53 -1 70 -16z"/>
<path d="M5272 9037 c-29 -30 -28 -62 3 -92 28 -29 43 -31 71 -10 17 13 16 14
-18 8 -31 -4 -38 -2 -53 20 -13 20 -14 30 -5 46 14 28 42 41 71 35 19 -5 21
-3 9 5 -24 17 -55 13 -78 -12z"/>
<path d="M5400 8995 c0 -42 4 -64 10 -60 6 3 10 30 10 60 0 30 -4 57 -10 60
-6 4 -10 -18 -10 -60z"/>
<path d="M5620 8990 l0 -70 40 0 c22 0 40 5 40 10 0 6 -16 10 -36 10 -31 0
-35 3 -32 22 2 16 12 25 33 29 l30 7 -33 1 c-29 1 -33 4 -30 24 2 16 12 24 38
28 l35 6 -42 2 -43 1 0 -70z"/>
<path d="M5752 8995 c1 -62 2 -65 7 -25 l6 45 20 -32 c10 -18 23 -33 27 -33 4
0 15 14 25 30 23 40 31 38 36 -12 3 -34 4 -30 5 20 1 35 -2 62 -8 62 -5 0 -19
-18 -30 -40 -11 -22 -23 -40 -25 -40 -3 0 -18 21 -35 48 l-30 47 2 -70z"/>
<path d="M4653 8990 c0 -36 2 -50 4 -32 2 17 2 47 0 65 -2 17 -4 3 -4 -33z"/>
<path d="M5052 8998 c7 -73 47 -99 88 -58 15 15 20 32 19 68 l-1 47 -9 -49
c-9 -57 -18 -69 -50 -64 -21 3 -24 9 -27 56 -2 28 -8 52 -14 52 -7 0 -9 -18
-6 -52z"/>
<path d="M5460 8988 c0 -68 16 -71 22 -4 l3 39 33 -47 c18 -25 37 -46 43 -46
5 0 8 28 7 63 -1 49 -2 53 -5 20 -2 -24 -8 -43 -13 -43 -4 0 -23 18 -40 40
-17 22 -36 40 -41 40 -5 0 -9 -28 -9 -62z"/>
<path d="M5936 8993 c-27 -57 -29 -76 -6 -48 17 21 76 20 84 -1 4 -9 9 -14 12
-11 8 8 -43 117 -55 117 -5 0 -21 -25 -35 -57z m58 -15 c-8 -12 -44 -9 -44 3
0 6 5 20 11 31 11 21 12 21 24 -3 7 -13 11 -27 9 -31z"/>
<path d="M9382 9010 c0 -19 2 -27 5 -17 2 9 2 25 0 35 -3 9 -5 1 -5 -18z"/>
<path d="M853 8905 c0 -22 2 -30 4 -17 2 12 2 30 0 40 -3 9 -5 -1 -4 -23z"/>
<path d="M9382 8880 c0 -19 2 -27 5 -17 2 9 2 25 0 35 -3 9 -5 1 -5 -18z"/>
<path d="M852 8780 c0 -19 2 -27 5 -17 2 9 2 25 0 35 -3 9 -5 1 -5 -18z"/>
<path d="M9382 8760 c0 -19 2 -27 5 -17 2 9 2 25 0 35 -3 9 -5 1 -5 -18z"/>
<path d="M852 8660 c0 -19 2 -27 5 -17 2 9 2 25 0 35 -3 9 -5 1 -5 -18z"/>
<path d="M9383 8635 c0 -22 2 -30 4 -17 2 12 2 30 0 40 -3 9 -5 -1 -4 -23z"/>
<path d="M852 8530 c0 -19 2 -27 5 -17 2 9 2 25 0 35 -3 9 -5 1 -5 -18z"/>
<path d="M9382 8510 c0 -19 2 -27 5 -17 2 9 2 25 0 35 -3 9 -5 1 -5 -18z"/>
<path d="M852 8410 c0 -19 2 -27 5 -17 2 9 2 25 0 35 -3 9 -5 1 -5 -18z"/>
<path d="M9382 8390 c0 -19 2 -27 5 -17 2 9 2 25 0 35 -3 9 -5 1 -5 -18z"/>
<path d="M852 8290 c0 -19 2 -27 5 -17 2 9 2 25 0 35 -3 9 -5 1 -5 -18z"/>
<path d="M9382 8260 c0 -19 2 -27 5 -17 2 9 2 25 0 35 -3 9 -5 1 -5 -18z"/>
<path d="M852 8160 c0 -19 2 -27 5 -17 2 9 2 25 0 35 -3 9 -5 1 -5 -18z"/>
<path d="M9382 8140 c0 -19 2 -27 5 -17 2 9 2 25 0 35 -3 9 -5 1 -5 -18z"/>
<path d="M852 8040 c0 -19 2 -27 5 -17 2 9 2 25 0 35 -3 9 -5 1 -5 -18z"/>
<path d="M9382 8020 c0 -19 2 -27 5 -17 2 9 2 25 0 35 -3 9 -5 1 -5 -18z"/>
<path d="M853 7915 c0 -22 2 -30 4 -17 2 12 2 30 0 40 -3 9 -5 -1 -4 -23z"/>
<path d="M9382 7890 c0 -19 2 -27 5 -17 2 9 2 25 0 35 -3 9 -5 1 -5 -18z"/>
<path d="M852 7790 c0 -19 2 -27 5 -17 2 9 2 25 0 35 -3 9 -5 1 -5 -18z"/>
<path d="M9382 7770 c0 -19 2 -27 5 -17 2 9 2 25 0 35 -3 9 -5 1 -5 -18z"/>
<path d="M852 7670 c0 -19 2 -27 5 -17 2 9 2 25 0 35 -3 9 -5 1 -5 -18z"/>
<path d="M9383 7645 c0 -22 2 -30 4 -17 2 12 2 30 0 40 -3 9 -5 -1 -4 -23z"/>
<path d="M852 7540 c0 -19 2 -27 5 -17 2 9 2 25 0 35 -3 9 -5 1 -5 -18z"/>
<path d="M9382 7520 c0 -19 2 -27 5 -17 2 9 2 25 0 35 -3 9 -5 1 -5 -18z"/>
<path d="M852 7420 c0 -19 2 -27 5 -17 2 9 2 25 0 35 -3 9 -5 1 -5 -18z"/>
<path d="M9382 7400 c0 -19 2 -27 5 -17 2 9 2 25 0 35 -3 9 -5 1 -5 -18z"/>
<path d="M852 7300 c0 -19 2 -27 5 -17 2 9 2 25 0 35 -3 9 -5 1 -5 -18z"/>
<path d="M9382 7270 c0 -19 2 -27 5 -17 2 9 2 25 0 35 -3 9 -5 1 -5 -18z"/>
<path d="M852 7170 c0 -19 2 -27 5 -17 2 9 2 25 0 35 -3 9 -5 1 -5 -18z"/>
<path d="M9382 7150 c0 -19 2 -27 5 -17 2 9 2 25 0 35 -3 9 -5 1 -5 -18z"/>
<path d="M852 7050 c0 -19 2 -27 5 -17 2 9 2 25 0 35 -3 9 -5 1 -5 -18z"/>
<path d="M9382 7030 c0 -19 2 -27 5 -17 2 9 2 25 0 35 -3 9 -5 1 -5 -18z"/>
<path d="M852 6930 c0 -19 2 -27 5 -17 2 9 2 25 0 35 -3 9 -5 1 -5 -18z"/>
<path d="M9382 6900 c0 -19 2 -27 5 -17 2 9 2 25 0 35 -3 9 -5 1 -5 -18z"/>
<path d="M852 6800 c0 -19 2 -27 5 -17 2 9 2 25 0 35 -3 9 -5 1 -5 -18z"/>
<path d="M9382 6780 c0 -19 2 -27 5 -17 2 9 2 25 0 35 -3 9 -5 1 -5 -18z"/>
<path d="M852 6680 c0 -19 2 -27 5 -17 2 9 2 25 0 35 -3 9 -5 1 -5 -18z"/>
<path d="M9383 6655 c0 -22 2 -30 4 -17 2 12 2 30 0 40 -3 9 -5 -1 -4 -23z"/>
<path d="M852 6550 c0 -19 2 -27 5 -17 2 9 2 25 0 35 -3 9 -5 1 -5 -18z"/>
<path d="M9382 6530 c0 -19 2 -27 5 -17 2 9 2 25 0 35 -3 9 -5 1 -5 -18z"/>
<path d="M883 6473 c9 -2 25 -2 35 0 9 3 1 5 -18 5 -19 0 -27 -2 -17 -5z"/>
<path d="M1013 6473 c9 -2 25 -2 35 0 9 3 1 5 -18 5 -19 0 -27 -2 -17 -5z"/>
<path d="M1133 6473 c9 -2 25 -2 35 0 9 3 1 5 -18 5 -19 0 -27 -2 -17 -5z"/>
<path d="M1253 6473 c9 -2 25 -2 35 0 9 3 1 5 -18 5 -19 0 -27 -2 -17 -5z"/>
<path d="M1383 6473 c9 -2 25 -2 35 0 9 3 1 5 -18 5 -19 0 -27 -2 -17 -5z"/>
<path d="M1503 6473 c9 -2 25 -2 35 0 9 3 1 5 -18 5 -19 0 -27 -2 -17 -5z"/>
<path d="M1623 6473 c9 -2 25 -2 35 0 9 3 1 5 -18 5 -19 0 -27 -2 -17 -5z"/>
<path d="M1753 6473 c9 -2 25 -2 35 0 9 3 1 5 -18 5 -19 0 -27 -2 -17 -5z"/>
<path d="M1873 6473 c9 -2 25 -2 35 0 9 3 1 5 -18 5 -19 0 -27 -2 -17 -5z"/>
<path d="M2003 6473 c9 -2 25 -2 35 0 9 3 1 5 -18 5 -19 0 -27 -2 -17 -5z"/>
<path d="M2123 6473 c9 -2 25 -2 35 0 9 3 1 5 -18 5 -19 0 -27 -2 -17 -5z"/>
<path d="M2243 6473 c9 -2 25 -2 35 0 9 3 1 5 -18 5 -19 0 -27 -2 -17 -5z"/>
<path d="M2373 6473 c9 -2 25 -2 35 0 9 3 1 5 -18 5 -19 0 -27 -2 -17 -5z"/>
<path d="M2493 6473 c9 -2 25 -2 35 0 9 3 1 5 -18 5 -19 0 -27 -2 -17 -5z"/>
<path d="M2613 6473 c9 -2 25 -2 35 0 9 3 1 5 -18 5 -19 0 -27 -2 -17 -5z"/>
<path d="M2743 6473 c9 -2 25 -2 35 0 9 3 1 5 -18 5 -19 0 -27 -2 -17 -5z"/>
<path d="M2863 6473 c9 -2 25 -2 35 0 9 3 1 5 -18 5 -19 0 -27 -2 -17 -5z"/>
<path d="M2993 6473 c9 -2 25 -2 35 0 9 3 1 5 -18 5 -19 0 -27 -2 -17 -5z"/>
<path d="M3113 6473 c9 -2 25 -2 35 0 9 3 1 5 -18 5 -19 0 -27 -2 -17 -5z"/>
<path d="M3233 6473 c9 -2 25 -2 35 0 9 3 1 5 -18 5 -19 0 -27 -2 -17 -5z"/>
<path d="M3363 6473 c9 -2 25 -2 35 0 9 3 1 5 -18 5 -19 0 -27 -2 -17 -5z"/>
<path d="M3483 6473 c9 -2 25 -2 35 0 9 3 1 5 -18 5 -19 0 -27 -2 -17 -5z"/>
<path d="M3603 6473 c9 -2 25 -2 35 0 9 3 1 5 -18 5 -19 0 -27 -2 -17 -5z"/>
<path d="M3733 6473 c9 -2 25 -2 35 0 9 3 1 5 -18 5 -19 0 -27 -2 -17 -5z"/>
<path d="M3853 6473 c9 -2 25 -2 35 0 9 3 1 5 -18 5 -19 0 -27 -2 -17 -5z"/>
<path d="M3983 6473 c9 -2 23 -2 30 0 6 3 -1 5 -18 5 -16 0 -22 -2 -12 -5z"/>
<path d="M4103 6473 c9 -2 25 -2 35 0 9 3 1 5 -18 5 -19 0 -27 -2 -17 -5z"/>
<path d="M4223 6473 c9 -2 25 -2 35 0 9 3 1 5 -18 5 -19 0 -27 -2 -17 -5z"/>
<path d="M4353 6473 c9 -2 25 -2 35 0 9 3 1 5 -18 5 -19 0 -27 -2 -17 -5z"/>
<path d="M4473 6473 c9 -2 25 -2 35 0 9 3 1 5 -18 5 -19 0 -27 -2 -17 -5z"/>
<path d="M4593 6473 c9 -2 25 -2 35 0 9 3 1 5 -18 5 -19 0 -27 -2 -17 -5z"/>
<path d="M4723 6473 c9 -2 25 -2 35 0 9 3 1 5 -18 5 -19 0 -27 -2 -17 -5z"/>
<path d="M4843 6473 c9 -2 25 -2 35 0 9 3 1 5 -18 5 -19 0 -27 -2 -17 -5z"/>
<path d="M4963 6473 c9 -2 25 -2 35 0 9 3 1 5 -18 5 -19 0 -27 -2 -17 -5z"/>
<path d="M5093 6473 c9 -2 25 -2 35 0 9 3 1 5 -18 5 -19 0 -27 -2 -17 -5z"/>
<path d="M5213 6473 c9 -2 25 -2 35 0 9 3 1 5 -18 5 -19 0 -27 -2 -17 -5z"/>
<path d="M5343 6473 c9 -2 25 -2 35 0 9 3 1 5 -18 5 -19 0 -27 -2 -17 -5z"/>
<path d="M5463 6473 c9 -2 25 -2 35 0 9 3 1 5 -18 5 -19 0 -27 -2 -17 -5z"/>
<path d="M5583 6473 c9 -2 25 -2 35 0 9 3 1 5 -18 5 -19 0 -27 -2 -17 -5z"/>
<path d="M5713 6473 c9 -2 25 -2 35 0 9 3 1 5 -18 5 -19 0 -27 -2 -17 -5z"/>
<path d="M5833 6473 c9 -2 25 -2 35 0 9 3 1 5 -18 5 -19 0 -27 -2 -17 -5z"/>
<path d="M5953 6473 c9 -2 25 -2 35 0 9 3 1 5 -18 5 -19 0 -27 -2 -17 -5z"/>
<path d="M6083 6473 c9 -2 25 -2 35 0 9 3 1 5 -18 5 -19 0 -27 -2 -17 -5z"/>
<path d="M6203 6473 c9 -2 25 -2 35 0 9 3 1 5 -18 5 -19 0 -27 -2 -17 -5z"/>
<path d="M6333 6473 c9 -2 25 -2 35 0 9 3 1 5 -18 5 -19 0 -27 -2 -17 -5z"/>
<path d="M6453 6473 c9 -2 25 -2 35 0 9 3 1 5 -18 5 -19 0 -27 -2 -17 -5z"/>
<path d="M6573 6473 c9 -2 25 -2 35 0 9 3 1 5 -18 5 -19 0 -27 -2 -17 -5z"/>
<path d="M6703 6473 c9 -2 25 -2 35 0 9 3 1 5 -18 5 -19 0 -27 -2 -17 -5z"/>
<path d="M6823 6473 c9 -2 25 -2 35 0 9 3 1 5 -18 5 -19 0 -27 -2 -17 -5z"/>
<path d="M6943 6473 c9 -2 25 -2 35 0 9 3 1 5 -18 5 -19 0 -27 -2 -17 -5z"/>
<path d="M7073 6473 c9 -2 25 -2 35 0 9 3 1 5 -18 5 -19 0 -27 -2 -17 -5z"/>
<path d="M7193 6473 c9 -2 25 -2 35 0 9 3 1 5 -18 5 -19 0 -27 -2 -17 -5z"/>
<path d="M7323 6473 c9 -2 25 -2 35 0 9 3 1 5 -18 5 -19 0 -27 -2 -17 -5z"/>
<path d="M7443 6473 c9 -2 25 -2 35 0 9 3 1 5 -18 5 -19 0 -27 -2 -17 -5z"/>
<path d="M7563 6473 c9 -2 25 -2 35 0 9 3 1 5 -18 5 -19 0 -27 -2 -17 -5z"/>
<path d="M7693 6473 c9 -2 25 -2 35 0 9 3 1 5 -18 5 -19 0 -27 -2 -17 -5z"/>
<path d="M7813 6473 c9 -2 25 -2 35 0 9 3 1 5 -18 5 -19 0 -27 -2 -17 -5z"/>
<path d="M7933 6473 c9 -2 25 -2 35 0 9 3 1 5 -18 5 -19 0 -27 -2 -17 -5z"/>
<path d="M8063 6473 c9 -2 25 -2 35 0 9 3 1 5 -18 5 -19 0 -27 -2 -17 -5z"/>
<path d="M8183 6473 c9 -2 25 -2 35 0 9 3 1 5 -18 5 -19 0 -27 -2 -17 -5z"/>
<path d="M8313 6473 c9 -2 25 -2 35 0 9 3 1 5 -18 5 -19 0 -27 -2 -17 -5z"/>
<path d="M8433 6473 c9 -2 25 -2 35 0 9 3 1 5 -18 5 -19 0 -27 -2 -17 -5z"/>
<path d="M8553 6473 c9 -2 25 -2 35 0 9 3 1 5 -18 5 -19 0 -27 -2 -17 -5z"/>
<path d="M8683 6473 c9 -2 25 -2 35 0 9 3 1 5 -18 5 -19 0 -27 -2 -17 -5z"/>
<path d="M8803 6473 c9 -2 25 -2 35 0 9 3 1 5 -18 5 -19 0 -27 -2 -17 -5z"/>
<path d="M8923 6473 c9 -2 25 -2 35 0 9 3 1 5 -18 5 -19 0 -27 -2 -17 -5z"/>
<path d="M9053 6473 c9 -2 25 -2 35 0 9 3 1 5 -18 5 -19 0 -27 -2 -17 -5z"/>
<path d="M9173 6473 c9 -2 25 -2 35 0 9 3 1 5 -18 5 -19 0 -27 -2 -17 -5z"/>
<path d="M9303 6473 c9 -2 25 -2 35 0 9 3 1 5 -18 5 -19 0 -27 -2 -17 -5z"/>
<path d="M952 6133 c-2 -39 0 -43 21 -42 16 1 17 3 5 6 -11 3 -18 17 -21 41
l-4 37 -1 -42z"/>
<path d="M1166 6161 c-4 -5 3 -7 14 -4 23 6 26 13 6 13 -8 0 -17 -4 -20 -9z"/>
<path d="M1292 6140 c0 -19 2 -27 5 -17 2 9 2 25 0 35 -3 9 -5 1 -5 -18z"/>
<path d="M1323 6163 c9 -2 25 -2 35 0 9 3 1 5 -18 5 -19 0 -27 -2 -17 -5z"/>
<path d="M1800 6130 c0 -35 3 -40 23 -39 16 1 18 2 5 6 -26 6 -22 31 5 36 l22
4 -22 2 c-27 1 -30 18 -5 24 13 4 11 5 -5 6 -20 1 -23 -4 -23 -39z"/>
<path d="M1962 6158 c-24 -24 -6 -69 28 -67 9 0 6 4 -7 9 -14 6 -23 18 -23 30
0 12 9 24 23 30 13 5 16 9 7 9 -9 1 -21 -4 -28 -11z"/>
<path d="M2051 6149 c-13 -11 -22 -21 -20 -22 2 -1 13 -9 24 -17 19 -14 19
-14 6 3 -12 15 -11 20 4 37 23 25 17 25 -14 -1z"/>
<path d="M2106 6161 c-4 -5 3 -7 14 -4 23 6 26 13 6 13 -8 0 -17 -4 -20 -9z"/>
<path d="M2198 6163 c12 -2 22 -9 22 -14 0 -5 -10 -9 -22 -10 -22 0 -22 -1 -3
-8 13 -6 23 -4 28 5 11 20 0 34 -26 33 -22 -2 -22 -2 1 -6z"/>
<path d="M2270 6166 c0 -2 9 -6 20 -9 11 -3 18 -1 14 4 -5 9 -34 13 -34 5z"/>
<path d="M2520 6162 c18 -6 25 -15 25 -32 0 -17 -7 -26 -25 -32 -25 -7 -25 -7
-1 -5 13 1 29 10 35 20 15 23 -3 51 -35 54 -24 2 -24 2 1 -5z"/>
<path d="M2892 6154 c-21 -23 -15 -49 12 -49 18 0 24 5 23 20 -2 30 -20 45
-35 29z"/>
<path d="M3003 6130 c0 -25 2 -35 4 -22 2 12 2 32 0 45 -2 12 -4 2 -4 -23z"/>
<path d="M3110 6155 c-26 -31 13 -82 44 -56 19 16 21 42 4 59 -16 16 -33 15
-48 -3z m45 -25 c0 -16 -6 -26 -18 -28 -19 -4 -32 20 -23 44 9 25 41 13 41
-16z"/>
<path d="M3690 6131 c0 -23 2 -41 4 -41 8 0 12 71 4 76 -4 3 -8 -13 -8 -35z"/>
<path d="M3850 6138 c0 -21 2 -38 4 -38 9 0 12 50 5 62 -6 8 -9 -1 -9 -24z"/>
<path d="M3940 6130 c0 -37 2 -40 28 -39 23 2 24 2 5 6 -13 2 -23 11 -23 18 0
7 10 16 23 18 l22 4 -22 2 c-13 0 -23 5 -23 10 0 5 10 12 23 14 19 4 18 4 -5
6 -26 1 -28 -2 -28 -39z"/>
<path d="M4430 6130 c0 -35 3 -40 23 -39 16 1 18 2 5 6 -12 3 -18 14 -18 33 0
19 6 30 18 33 13 4 11 5 -5 6 -20 1 -23 -4 -23 -39z"/>
<path d="M4513 6130 c0 -25 2 -35 4 -22 2 12 2 32 0 45 -2 12 -4 2 -4 -23z"/>
<path d="M4640 6130 c0 -35 3 -40 23 -39 16 1 18 2 5 6 -12 3 -18 14 -18 33 0
19 6 30 18 33 13 4 11 5 -5 6 -20 1 -23 -4 -23 -39z"/>
<path d="M4720 6130 c0 -37 2 -40 28 -39 23 2 24 2 5 6 -13 2 -23 11 -23 18 0
7 10 16 23 18 l22 4 -22 2 c-13 0 -23 5 -23 10 0 5 10 12 23 14 19 4 18 4 -5
6 -26 1 -28 -2 -28 -39z"/>
<path d="M4798 6163 c6 -2 18 -2 25 0 6 3 1 5 -13 5 -14 0 -19 -2 -12 -5z"/>
<path d="M5286 6161 c-4 -5 3 -7 14 -4 23 6 26 13 6 13 -8 0 -17 -4 -20 -9z"/>
<path d="M5416 6161 c-4 -5 3 -7 14 -4 23 6 26 13 6 13 -8 0 -17 -4 -20 -9z"/>
<path d="M5518 6163 c7 -3 16 -2 19 1 4 3 -2 6 -13 5 -11 0 -14 -3 -6 -6z"/>
<path d="M5650 6131 c0 -23 2 -41 4 -41 8 0 12 71 4 76 -4 3 -8 -13 -8 -35z"/>
<path d="M1680 6135 c0 -20 5 -25 25 -25 14 0 25 4 25 9 0 5 -8 8 -17 7 -11 0
-17 6 -17 17 1 9 -2 17 -7 17 -5 0 -9 -11 -9 -25z"/>
<path d="M1110 6140 c-9 -6 -10 -10 -3 -10 6 0 15 5 18 10 8 12 4 12 -15 0z"/>
<path d="M1212 6130 c0 -14 2 -19 5 -12 2 6 2 18 0 25 -3 6 -5 1 -5 -13z"/>
<path d="M3570 6135 c0 -8 4 -15 10 -15 5 0 7 7 4 15 -4 8 -8 15 -10 15 -2 0
-4 -7 -4 -15z"/>
<path d="M5462 6130 c0 -14 2 -19 5 -12 2 6 2 18 0 25 -3 6 -5 1 -5 -13z"/>
<path d="M4306 6128 c3 -5 10 -6 15 -3 13 9 11 12 -6 12 -8 0 -12 -4 -9 -9z"/>
<path d="M4808 6130 c12 -5 22 -15 22 -21 0 -7 2 -10 5 -7 12 11 -9 38 -29 37
-21 0 -21 0 2 -9z"/>
<path d="M5537 6121 c3 -12 -1 -21 -11 -24 -13 -4 -13 -5 1 -3 19 1 32 46 15
46 -6 0 -8 -9 -5 -19z"/>
<path d="M1030 6121 c-24 -7 -24 -8 6 -12 24 -4 31 -2 27 8 -3 7 -6 13 -7 12
0 -1 -12 -4 -26 -8z"/>
<path d="M1877 6115 c-3 -7 5 -10 24 -7 35 5 36 8 5 14 -14 3 -27 0 -29 -7z"/>
<path d="M5315 6118 c4 -11 0 -18 -12 -21 -15 -4 -16 -5 -1 -6 22 -1 33 18 19
32 -9 9 -11 8 -6 -5z"/>
<path d="M3783 6113 c9 -2 25 -2 35 0 9 3 1 5 -18 5 -19 0 -27 -2 -17 -5z"/>
<path d="M4557 6103 c3 -7 6 -13 8 -13 2 0 5 6 8 13 3 8 -1 14 -8 14 -7 0 -11
-6 -8 -14z"/>
<path d="M5583 6113 c9 -2 25 -2 35 0 9 3 1 5 -18 5 -19 0 -27 -2 -17 -5z"/>
<path d="M1168 6098 c5 -5 16 -8 23 -6 8 3 3 7 -10 11 -17 4 -21 3 -13 -5z"/>
<path d="M1248 6098 c5 -5 16 -8 23 -6 8 3 3 7 -10 11 -17 4 -21 3 -13 -5z"/>
<path d="M2108 6098 c6 -6 18 -8 28 -6 14 3 12 5 -9 10 -19 3 -25 2 -19 -4z"/>
<path d="M2285 6100 c-16 -7 -17 -9 -3 -9 9 -1 20 4 23 9 7 11 7 11 -20 0z"/>
<path d="M2347 6098 c2 -5 10 -8 18 -8 8 0 16 3 18 8 3 4 -5 7 -18 7 -13 0
-21 -3 -18 -7z"/>
<path d="M5418 6098 c5 -5 16 -8 23 -6 8 3 3 7 -10 11 -17 4 -21 3 -13 -5z"/>
<path d="M5358 6093 c6 -2 18 -2 25 0 6 3 1 5 -13 5 -14 0 -19 -2 -12 -5z"/>
</g>
</svg>
